<svg xmlns="http://www.w3.org/2000/svg" xmlns:xlink="http://www.w3.org/1999/xlink" contentStyleType="text/css" data-diagram-type="SEQUENCE" height="8171.875px" preserveAspectRatio="none" style="width:7390px;height:8171px;background:#FFFFFF;" version="1.1" viewBox="0 0 7390 8171" width="7390.625px" zoomAndPan="magnify"><title>GIT SVN - operation releated command overview</title><defs><filter height="300%" id="f1t2jlzw8baibg" width="300%" x="-1" y="-1"><feGaussianBlur result="blurOut" stdDeviation="6.25"/><feColorMatrix in="blurOut" result="blurOut2" type="matrix" values="0 0 0 0 0 0 0 0 0 0 0 0 0 0 0 0 0 0 .4 0"/><feOffset dx="12.5" dy="12.5" in="blurOut2" result="blurOut3"/><feBlend in="SourceGraphic" in2="blurOut3" mode="normal"/></filter></defs><g><rect fill="#DCDDDA" height="7922.4457" style="stroke:#181818;stroke-width:1.5625;" width="4055.957" x="1619.9463" y="233.4259"/><text fill="#000000" font-family="Arial" font-size="75" font-weight="bold" lengthAdjust="spacing" textLength="170.9106" x="3562.4695" y="310.025">local</text><rect fill="#D2CBC0" height="7808.078" style="stroke:#181818;stroke-width:1.5625;" width="1808.5083" x="1619.9463" y="347.7936"/><text fill="#000000" font-family="Arial" font-size="75" font-weight="bold" lengthAdjust="spacing" textLength="450.0732" x="2299.1638" y="424.3927">Sandbox(es)</text><rect fill="#BBAB92" height="7693.7103" style="stroke:#181818;stroke-width:1.5625;" width="1062.5366" x="1619.9463" y="462.1613"/><text fill="#000000" font-family="Arial" font-size="75" font-weight="bold" lengthAdjust="spacing" textLength="975.0366" x="1663.6963" y="538.7604">other worktree(s) (optional)</text><rect fill="#C5B69D" height="7693.7103" style="stroke:#181818;stroke-width:1.5625;" width="645.9717" x="2782.4829" y="462.1613"/><text fill="#000000" font-family="Arial" font-size="75" font-weight="bold" lengthAdjust="spacing" textLength="558.4717" x="2826.2329" y="538.7604">(main) worktree</text><rect fill="#D2CBC0" height="7808.078" style="stroke:#181818;stroke-width:1.5625;" width="1695.6909" x="3980.2124" y="347.7936"/><text fill="#000000" font-family="Arial" font-size="75" font-weight="bold" lengthAdjust="spacing" textLength="516.7603" x="4569.6777" y="424.3927">Database (.git)</text><rect fill="#C5B69D" height="7693.7103" style="stroke:#181818;stroke-width:1.5625;" width="343.0603" x="3980.2124" y="462.1613"/><rect fill="#BBAB92" height="7693.7103" style="stroke:#181818;stroke-width:1.5625;" width="294.5251" x="4515.2588" y="462.1613"/><rect fill="#B09B7E" height="7693.7103" style="stroke:#181818;stroke-width:1.5625;" width="766.1194" x="4909.7839" y="462.1613"/><rect fill="#DCDDDA" height="7922.4457" style="stroke:#181818;stroke-width:1.5625;" width="1145.3003" x="6189.7125" y="233.4259"/><text fill="#000000" font-family="Arial" font-size="75" font-weight="bold" lengthAdjust="spacing" textLength="250.0854" x="6637.3199" y="310.025">remote</text><rect fill="#C5B69D" height="7808.078" style="stroke:#181818;stroke-width:1.5625;" width="1145.3003" x="6189.7125" y="347.7936"/><text fill="#000000" font-family="Arial" font-size="118.75" font-weight="bold" lengthAdjust="spacing" textLength="2745.166" x="3864.8697" y="164.5111">GIT SVN - operation releated command overview</text><g><title>Other</title><rect fill="transparent" height="7206.2347" width="25" x="2140.2771" y="930.8868"/><line style="stroke:#1A1C20;stroke-width:1.5625;" x1="2151.2146" x2="2151.2146" y1="930.8868" y2="8137.1216"/></g><g><title>Workspace</title><rect fill="transparent" height="7206.2347" width="25" x="3094.5313" y="930.8868"/><line style="stroke:#1A1C20;stroke-width:1.5625;" x1="3105.4688" x2="3105.4688" y1="930.8868" y2="8137.1216"/></g><g><title>Stage</title><rect fill="transparent" height="7206.2347" width="25" x="4140.8051" y="930.8868"/><line style="stroke:#1A1C20;stroke-width:1.5625;" x1="4151.7426" x2="4151.7426" y1="930.8868" y2="8137.1216"/></g><g><title>Stash</title><rect fill="transparent" height="7206.2347" width="25" x="4651.5839" y="930.8868"/><line style="stroke:#1A1C20;stroke-width:1.5625;" x1="4662.5214" x2="4662.5214" y1="930.8868" y2="8137.1216"/></g><g><title>Local Repository</title><rect fill="transparent" height="7206.2347" width="25" x="5281.9061" y="930.8868"/><line style="stroke:#1A1C20;stroke-width:1.5625;" x1="5292.8436" x2="5292.8436" y1="930.8868" y2="8137.1216"/></g><g><title>(main) Remote Repository</title><rect fill="transparent" height="7206.2347" width="25" x="6751.4252" y="930.8868"/><line style="stroke:#1A1C20;stroke-width:1.5625;" x1="6762.3627" x2="6762.3627" y1="930.8868" y2="8137.1216"/></g><text fill="#000000" font-family="Arial" font-size="87.5" font-weight="bold" lengthAdjust="spacing" textLength="233.3618" x="2025.1587" y="805.4779">Other</text><text fill="#000000" font-family="Arial" font-size="87.5" font-weight="bold" lengthAdjust="spacing" textLength="573.7915" x="1854.9438" y="906.0944">Workspace(s)</text><path d="M2094.9646,604.6539 C2094.9646,573.4039 2151.2146,573.4039 2151.2146,573.4039 C2151.2146,573.4039 2207.4646,573.4039 2207.4646,604.6539 L2207.4646,685.9039 C2207.4646,717.1539 2151.2146,717.1539 2151.2146,717.1539 C2151.2146,717.1539 2094.9646,717.1539 2094.9646,685.9039 L2094.9646,604.6539 " fill="#B09B7E" filter="url(#f1t2jlzw8baibg)" style="stroke:#1A1C20;stroke-width:4.6875;"/><path d="M2094.9646,604.6539 C2094.9646,635.9039 2151.2146,635.9039 2151.2146,635.9039 C2151.2146,635.9039 2207.4646,635.9039 2207.4646,604.6539 " fill="transparent" style="stroke:#1A1C20;stroke-width:4.6875;"/><text fill="#000000" font-family="Arial" font-size="87.5" font-weight="bold" lengthAdjust="spacing" textLength="466.8518" x="2862.6678" y="805.4779">Workspace</text><text fill="#000000" font-family="Arial" font-size="87.5" font-weight="bold" lengthAdjust="spacing" textLength="24.3103" x="3083.9386" y="906.0944">&#160;</text><path d="M3049.2188,604.6539 C3049.2188,573.4039 3105.4688,573.4039 3105.4688,573.4039 C3105.4688,573.4039 3161.7188,573.4039 3161.7188,604.6539 L3161.7188,685.9039 C3161.7188,717.1539 3105.4688,717.1539 3105.4688,717.1539 C3105.4688,717.1539 3049.2188,717.1539 3049.2188,685.9039 L3049.2188,604.6539 " fill="#B09B7E" filter="url(#f1t2jlzw8baibg)" style="stroke:#1A1C20;stroke-width:4.6875;"/><path d="M3049.2188,604.6539 C3049.2188,635.9039 3105.4688,635.9039 3105.4688,635.9039 C3105.4688,635.9039 3161.7188,635.9039 3161.7188,604.6539 " fill="transparent" style="stroke:#1A1C20;stroke-width:4.6875;"/><text fill="#000000" font-family="Arial" font-size="87.5" font-weight="bold" lengthAdjust="spacing" textLength="238.2751" x="4023.23" y="805.4779">Stage</text><text fill="#000000" font-family="Arial" font-size="87.5" font-weight="bold" lengthAdjust="spacing" textLength="286.8103" x="3998.9624" y="906.0944">(index)</text><path d="M4095.4926,604.6539 C4095.4926,573.4039 4151.7426,573.4039 4151.7426,573.4039 C4151.7426,573.4039 4207.9926,573.4039 4207.9926,604.6539 L4207.9926,685.9039 C4207.9926,717.1539 4151.7426,717.1539 4151.7426,717.1539 C4151.7426,717.1539 4095.4926,717.1539 4095.4926,685.9039 L4095.4926,604.6539 " fill="#B09B7E" filter="url(#f1t2jlzw8baibg)" style="stroke:#1A1C20;stroke-width:4.6875;"/><path d="M4095.4926,604.6539 C4095.4926,635.9039 4151.7426,635.9039 4151.7426,635.9039 C4151.7426,635.9039 4207.9926,635.9039 4207.9926,604.6539 " fill="transparent" style="stroke:#1A1C20;stroke-width:4.6875;"/><text fill="#000000" font-family="Arial" font-size="87.5" font-weight="bold" lengthAdjust="spacing" textLength="238.2751" x="4534.0088" y="805.4779">Stash</text><text fill="#000000" font-family="Arial" font-size="87.5" font-weight="bold" lengthAdjust="spacing" textLength="24.3103" x="4640.9912" y="906.0944">&#160;</text><path d="M4606.2714,604.6539 C4606.2714,573.4039 4662.5214,573.4039 4662.5214,573.4039 C4662.5214,573.4039 4718.7714,573.4039 4718.7714,604.6539 L4718.7714,685.9039 C4718.7714,717.1539 4662.5214,717.1539 4662.5214,717.1539 C4662.5214,717.1539 4606.2714,717.1539 4606.2714,685.9039 L4606.2714,604.6539 " fill="#B09B7E" filter="url(#f1t2jlzw8baibg)" style="stroke:#1A1C20;stroke-width:4.6875;"/><path d="M4606.2714,604.6539 C4606.2714,635.9039 4662.5214,635.9039 4662.5214,635.9039 C4662.5214,635.9039 4718.7714,635.9039 4718.7714,604.6539 " fill="transparent" style="stroke:#1A1C20;stroke-width:4.6875;"/><text fill="#000000" font-family="Arial" font-size="87.5" font-weight="bold" lengthAdjust="spacing" textLength="709.8694" x="4928.5339" y="805.4779">Local Repository</text><text fill="#000000" font-family="Arial" font-size="87.5" font-weight="bold" lengthAdjust="spacing" textLength="24.3103" x="5271.3135" y="906.0944">&#160;</text><path d="M5236.5936,604.6539 C5236.5936,573.4039 5292.8436,573.4039 5292.8436,573.4039 C5292.8436,573.4039 5349.0936,573.4039 5349.0936,604.6539 L5349.0936,685.9039 C5349.0936,717.1539 5292.8436,717.1539 5292.8436,717.1539 C5292.8436,717.1539 5236.5936,717.1539 5236.5936,685.9039 L5236.5936,604.6539 " fill="#B09B7E" filter="url(#f1t2jlzw8baibg)" style="stroke:#1A1C20;stroke-width:4.6875;"/><path d="M5236.5936,604.6539 C5236.5936,635.9039 5292.8436,635.9039 5292.8436,635.9039 C5292.8436,635.9039 5349.0936,635.9039 5349.0936,604.6539 " fill="transparent" style="stroke:#1A1C20;stroke-width:4.6875;"/><text fill="#000000" font-family="Arial" font-size="87.5" font-weight="bold" lengthAdjust="spacing" textLength="1089.0503" x="6208.4625" y="805.4779">(main) Remote Repository</text><text fill="#000000" font-family="Arial" font-size="87.5" font-weight="bold" lengthAdjust="spacing" textLength="476.3367" x="6514.8193" y="906.0944">(e.g. origin)</text><path d="M6706.1127,604.6539 C6706.1127,573.4039 6762.3627,573.4039 6762.3627,573.4039 C6762.3627,573.4039 6818.6127,573.4039 6818.6127,604.6539 L6818.6127,685.9039 C6818.6127,717.1539 6762.3627,717.1539 6762.3627,717.1539 C6762.3627,717.1539 6706.1127,717.1539 6706.1127,685.9039 L6706.1127,604.6539 " fill="#B09B7E" filter="url(#f1t2jlzw8baibg)" style="stroke:#1A1C20;stroke-width:4.6875;"/><path d="M6706.1127,604.6539 C6706.1127,635.9039 6762.3627,635.9039 6762.3627,635.9039 C6762.3627,635.9039 6818.6127,635.9039 6818.6127,604.6539 " fill="transparent" style="stroke:#1A1C20;stroke-width:4.6875;"/><rect fill="#EEEEEE" filter="url(#f1t2jlzw8baibg)" height="9.375" style="stroke:#EEEEEE;stroke-width:3.125;" width="7338.1378" x="15.625" y="1045.8832"/><line style="stroke:#000000;stroke-width:3.125;" x1="15.625" x2="7353.7628" y1="1045.8832" y2="1045.8832"/><line style="stroke:#000000;stroke-width:3.125;" x1="15.625" x2="7353.7628" y1="1055.2582" y2="1055.2582"/><rect fill="#EEEEEE" filter="url(#f1t2jlzw8baibg)" height="123.7427" style="stroke:#000000;stroke-width:6.25;" width="277.1118" x="3546.138" y="987.1368"/><text fill="#000000" font-family="Arial" font-size="75" font-weight="bold" lengthAdjust="spacing" textLength="200.0244" x="3571.138" y="1076.236">setup</text><polygon fill="#181818" points="5327.2186,1239.9353,5295.9686,1252.4353,5327.2186,1264.9353,5314.7186,1252.4353" style="stroke:#181818;stroke-width:3.125;"/><line style="stroke:#181818;stroke-width:6.25;" x1="5308.4686" x2="6759.2377" y1="1252.4353" y2="1252.4353"/><polygon fill="#181818" points="3139.8438,1239.9353,3108.5938,1252.4353,3139.8438,1264.9353,3127.3438,1252.4353" style="stroke:#181818;stroke-width:3.125;"/><line style="stroke:#181818;stroke-width:6.25;" x1="3121.0938" x2="5289.7186" y1="1252.4353" y2="1252.4353"/><text fill="#0000FF" font-family="Arial" font-size="68.75" font-weight="bold" lengthAdjust="spacing" textLength="420.2209" x="3164.8438" y="1225.3662">git svn clone</text><rect fill="#EEEEEE" filter="url(#f1t2jlzw8baibg)" height="9.375" style="stroke:#EEEEEE;stroke-width:3.125;" width="7338.1378" x="15.625" y="1367.4316"/><line style="stroke:#000000;stroke-width:3.125;" x1="15.625" x2="7353.7628" y1="1367.4316" y2="1367.4316"/><line style="stroke:#000000;stroke-width:3.125;" x1="15.625" x2="7353.7628" y1="1376.8066" y2="1376.8066"/><rect fill="#EEEEEE" filter="url(#f1t2jlzw8baibg)" height="123.7427" style="stroke:#000000;stroke-width:6.25;" width="644.0186" x="3362.6846" y="1308.6853"/><text fill="#000000" font-family="Arial" font-size="75" font-weight="bold" lengthAdjust="spacing" textLength="566.9312" x="3387.6846" y="1397.7844">update / release</text><polygon fill="#181818" points="5255.3436,1561.4838,5286.5936,1573.9838,5255.3436,1586.4838,5267.8436,1573.9838" style="stroke:#181818;stroke-width:3.125;"/><line style="stroke:#181818;stroke-width:6.25;" x1="4151.7426" x2="5274.0936" y1="1573.9838" y2="1573.9838"/><text fill="#000000" font-family="Arial" font-size="68.75" font-weight="bold" lengthAdjust="spacing" textLength="347.5769" x="4179.8676" y="1546.9147">git commit</text><polygon fill="#181818" points="4114.2426,1696.7896,4145.4926,1709.2896,4114.2426,1721.7896,4126.7426,1709.2896" style="stroke:#181818;stroke-width:3.125;"/><line style="stroke:#181818;stroke-width:6.25;" x1="3105.4688" x2="4132.9926" y1="1709.2896" y2="1709.2896"/><text fill="#000000" font-family="Arial" font-size="68.75" font-weight="bold" lengthAdjust="spacing" textLength="427.8076" x="3133.5938" y="1682.2205">git commit -a</text><polygon fill="#181818" points="5255.3436,1696.7896,5286.5936,1709.2896,5255.3436,1721.7896,5267.8436,1709.2896" style="stroke:#181818;stroke-width:3.125;"/><line style="stroke:#181818;stroke-width:6.25;" x1="4151.7426" x2="5274.0936" y1="1709.2896" y2="1709.2896"/><polygon fill="#181818" points="6724.8627,1832.0953,6756.1127,1844.5953,6724.8627,1857.0953,6737.3627,1844.5953" style="stroke:#181818;stroke-width:3.125;"/><line style="stroke:#181818;stroke-width:6.25;" x1="5292.8436" x2="6743.6127" y1="1844.5953" y2="1844.5953"/><text fill="#0000FF" font-family="Arial" font-size="68.75" font-weight="bold" lengthAdjust="spacing" textLength="527.1393" x="5320.9686" y="1817.5262">git svn dcommit</text><polygon fill="#181818" points="5327.2186,1967.4011,5295.9686,1979.9011,5327.2186,1992.4011,5314.7186,1979.9011" style="stroke:#181818;stroke-width:3.125;"/><line style="stroke:#181818;stroke-width:6.25;" x1="5308.4686" x2="6759.2377" y1="1979.9011" y2="1979.9011"/><text fill="#0000FF" font-family="Arial" font-size="68.75" font-weight="bold" lengthAdjust="spacing" textLength="404.9133" x="5352.2186" y="1952.832">git svn fetch</text><polygon fill="#181818" points="3139.8438,2102.7069,3108.5938,2115.2069,3139.8438,2127.7069,3127.3438,2115.2069" style="stroke:#181818;stroke-width:3.125;"/><polygon fill="#181818" points="5255.3436,2102.7069,5286.5936,2115.2069,5255.3436,2127.7069,5267.8436,2115.2069" style="stroke:#181818;stroke-width:3.125;"/><line style="stroke:#181818;stroke-width:6.25;" x1="3121.0938" x2="5274.0936" y1="2115.2069" y2="2115.2069"/><text fill="#0000FF" font-family="Arial" font-size="68.75" font-weight="bold" lengthAdjust="spacing" textLength="462.3505" x="3164.8438" y="2088.1378">git svn rebase</text><rect fill="#EEEEEE" filter="url(#f1t2jlzw8baibg)" height="9.375" style="stroke:#EEEEEE;stroke-width:3.125;" width="7338.1378" x="15.625" y="2230.2032"/><line style="stroke:#000000;stroke-width:3.125;" x1="15.625" x2="7353.7628" y1="2230.2032" y2="2230.2032"/><line style="stroke:#000000;stroke-width:3.125;" x1="15.625" x2="7353.7628" y1="2239.5782" y2="2239.5782"/><rect fill="#EEEEEE" filter="url(#f1t2jlzw8baibg)" height="123.7427" style="stroke:#000000;stroke-width:6.25;" width="589.6729" x="3389.8575" y="2171.4569"/><text fill="#000000" font-family="Arial" font-size="75" font-weight="bold" lengthAdjust="spacing" textLength="512.5854" x="3414.8575" y="2260.556">file operations</text><polygon fill="#181818" points="4114.2426,2424.2554,4145.4926,2436.7554,4114.2426,2449.2554,4126.7426,2436.7554" style="stroke:#181818;stroke-width:3.125;"/><line style="stroke:#181818;stroke-width:6.25;" x1="3105.4688" x2="4132.9926" y1="2436.7554" y2="2436.7554"/><text fill="#000000" font-family="Arial" font-size="68.75" font-weight="bold" lengthAdjust="spacing" textLength="225.3174" x="3133.5938" y="2409.6863">git add</text><polygon fill="#181818" points="4114.2426,2559.5612,4145.4926,2572.0612,4114.2426,2584.5612,4126.7426,2572.0612" style="stroke:#181818;stroke-width:3.125;"/><line style="stroke:#181818;stroke-width:6.25;" x1="3105.4688" x2="4132.9926" y1="2572.0612" y2="2572.0612"/><text fill="#000000" font-family="Arial" font-size="68.75" font-weight="bold" lengthAdjust="spacing" textLength="190.976" x="3133.5938" y="2544.9921">git rm</text><polygon fill="#181818" points="4114.2426,2694.8669,4145.4926,2707.3669,4114.2426,2719.8669,4126.7426,2707.3669" style="stroke:#181818;stroke-width:3.125;"/><line style="stroke:#181818;stroke-width:6.25;" x1="3105.4688" x2="4132.9926" y1="2707.3669" y2="2707.3669"/><text fill="#000000" font-family="Arial" font-size="68.75" font-weight="bold" lengthAdjust="spacing" textLength="202.4567" x="3133.5938" y="2680.2979">git mv</text><rect fill="#EEEEEE" filter="url(#f1t2jlzw8baibg)" height="9.375" style="stroke:#EEEEEE;stroke-width:3.125;" width="7338.1378" x="15.625" y="2822.3633"/><line style="stroke:#000000;stroke-width:3.125;" x1="15.625" x2="7353.7628" y1="2822.3633" y2="2822.3633"/><line style="stroke:#000000;stroke-width:3.125;" x1="15.625" x2="7353.7628" y1="2831.7383" y2="2831.7383"/><rect fill="#EEEEEE" filter="url(#f1t2jlzw8baibg)" height="123.7427" style="stroke:#000000;stroke-width:6.25;" width="248.0347" x="3560.6766" y="2763.6169"/><text fill="#000000" font-family="Arial" font-size="75" font-weight="bold" lengthAdjust="spacing" textLength="170.9473" x="3585.6766" y="2852.7161">misc</text><polygon fill="#181818" points="3139.8438,3016.4154,3108.5938,3028.9154,3139.8438,3041.4154,3127.3438,3028.9154" style="stroke:#181818;stroke-width:3.125;"/><line style="stroke:#181818;stroke-width:6.25;" x1="3121.0938" x2="4148.6176" y1="3028.9154" y2="3028.9154"/><text fill="#000000" font-family="Arial" font-size="68.75" font-weight="bold" lengthAdjust="spacing" textLength="336.1969" x="3164.8438" y="3001.8463">git restore</text><polygon fill="#181818" points="3139.8438,3151.7212,3108.5938,3164.2212,3139.8438,3176.7212,3127.3438,3164.2212" style="stroke:#181818;stroke-width:3.125;"/><line style="stroke:#181818;stroke-width:6.25;" x1="3121.0938" x2="4148.6176" y1="3164.2212" y2="3164.2212"/><text fill="#000000" font-family="Arial" font-size="68.75" font-weight="bold" lengthAdjust="spacing" textLength="404.9133" x="3164.8438" y="3137.1521">git checkout</text><polygon fill="#181818" points="4114.2426,3287.027,4145.4926,3299.527,4114.2426,3312.027,4126.7426,3299.527" style="stroke:#181818;stroke-width:3.125;"/><line style="stroke:#181818;stroke-width:6.25;" x1="3105.4688" x2="4132.9926" y1="3299.527" y2="3299.527"/><text fill="#000000" font-family="Arial" font-size="68.75" font-weight="bold" lengthAdjust="spacing" textLength="958.7738" x="3133.5938" y="3272.4579">git add --interactive OR add -i</text><path d="M1946.4935,3204.8462 L1946.4935,3326.7212 L3077.7435,3326.7212 L3077.7435,3236.0962 L3046.4935,3204.8462 L1946.4935,3204.8462 " fill="#FEFFDD" filter="url(#f1t2jlzw8baibg)" style="stroke:#181818;stroke-width:1.5625;"/><path d="M3046.4935,3204.8462 L3046.4935,3236.0962 L3077.7435,3236.0962 L3046.4935,3204.8462 " fill="#FEFFDD" style="stroke:#181818;stroke-width:1.5625;"/><text fill="#000000" font-family="Arial" font-size="68.75" font-weight="bold" lengthAdjust="spacing" textLength="1027.7252" x="1999.6185" y="3291.2079">Selective add contents to stage</text><polygon fill="#181818" points="3139.8438,3450.4578,3108.5938,3462.9578,3139.8438,3475.4578,3127.3438,3462.9578" style="stroke:#181818;stroke-width:3.125;"/><polygon fill="#181818" points="5255.3436,3450.4578,5286.5936,3462.9578,5255.3436,3475.4578,5267.8436,3462.9578" style="stroke:#181818;stroke-width:3.125;"/><line style="stroke:#181818;stroke-width:6.25;" x1="3121.0938" x2="5274.0936" y1="3462.9578" y2="3462.9578"/><text fill="#000000" font-family="Arial" font-size="68.75" font-weight="bold" lengthAdjust="spacing" textLength="1077.475" x="3164.8438" y="3435.8887">git rebase --interactive &lt;commit&gt;</text><path d="M226.2329,3368.277 L226.2329,3646.402 L3079.3579,3646.402 L3079.3579,3399.527 L3048.1079,3368.277 L226.2329,3368.277 " fill="#FEFFDD" filter="url(#f1t2jlzw8baibg)" style="stroke:#181818;stroke-width:1.5625;"/><path d="M3048.1079,3368.277 L3048.1079,3399.527 L3079.3579,3399.527 L3048.1079,3368.277 " fill="#FEFFDD" style="stroke:#181818;stroke-width:1.5625;"/><text fill="#000000" font-family="Arial" font-size="68.75" font-weight="bold" lengthAdjust="spacing" textLength="2747.9858" x="279.3579" y="3454.6387">Select and modify commit's (message/content/delete/reorder/fix/squash/combine/...)</text><text fill="#000000" font-family="Arial" font-size="68.75" font-weight="bold" lengthAdjust="spacing" textLength="542.5476" x="1382.077" y="3533.6945">Rewrites History</text><text fill="#000000" font-family="Arial" font-size="68.75" font-weight="bold" lengthAdjust="spacing" textLength="2070.5231" x="618.0893" y="3612.7502">Must only be done for commits that are not released to svn yet!</text><rect fill="#EEEEEE" filter="url(#f1t2jlzw8baibg)" height="9.375" style="stroke:#EEEEEE;stroke-width:3.125;" width="7338.1378" x="15.625" y="3764.1907"/><line style="stroke:#000000;stroke-width:3.125;" x1="15.625" x2="7353.7628" y1="3764.1907" y2="3764.1907"/><line style="stroke:#000000;stroke-width:3.125;" x1="15.625" x2="7353.7628" y1="3773.5657" y2="3773.5657"/><rect fill="#EEEEEE" filter="url(#f1t2jlzw8baibg)" height="123.7427" style="stroke:#000000;stroke-width:6.25;" width="902.3438" x="3233.522" y="3705.4443"/><text fill="#000000" font-family="Arial" font-size="75" font-weight="bold" lengthAdjust="spacing" textLength="825.2563" x="3258.522" y="3794.5435">browse git svn specific</text><polygon fill="#181818" points="3139.8438,3958.2428,3108.5938,3970.7428,3139.8438,3983.2428,3127.3438,3970.7428" style="stroke:#181818;stroke-width:3.125;"/><polygon fill="#181818" points="5255.3436,3958.2428,5286.5936,3970.7428,5255.3436,3983.2428,5267.8436,3970.7428" style="stroke:#181818;stroke-width:3.125;"/><line style="stroke:#181818;stroke-width:6.25;" x1="3121.0938" x2="5274.0936" y1="3970.7428" y2="3970.7428"/><text fill="#0000FF" font-family="Arial" font-size="68.75" font-weight="bold" lengthAdjust="spacing" textLength="439.3555" x="3164.8438" y="3943.6737">git svn blame</text><line style="stroke:#181818;stroke-width:6.25;" x1="5161.5936" x2="5289.7186" y1="4106.0486" y2="4106.0486"/><line style="stroke:#181818;stroke-width:6.25;" x1="5161.5936" x2="5161.5936" y1="4106.0486" y2="4146.6736"/><line style="stroke:#181818;stroke-width:6.25;" x1="5161.5936" x2="5286.5936" y1="4146.6736" y2="4146.6736"/><polygon fill="#181818" points="5255.3436,4134.1736,5286.5936,4146.6736,5255.3436,4159.1736,5267.8436,4146.6736" style="stroke:#181818;stroke-width:3.125;"/><text fill="#0000FF" font-family="Arial" font-size="68.75" font-weight="bold" lengthAdjust="spacing" textLength="366.6443" x="4898.0743" y="4078.9795">git svn info</text><line style="stroke:#181818;stroke-width:6.25;" x1="5161.5936" x2="5289.7186" y1="4281.9794" y2="4281.9794"/><line style="stroke:#181818;stroke-width:6.25;" x1="5161.5936" x2="5161.5936" y1="4281.9794" y2="4322.6044"/><line style="stroke:#181818;stroke-width:6.25;" x1="5161.5936" x2="5286.5936" y1="4322.6044" y2="4322.6044"/><polygon fill="#181818" points="5255.3436,4310.1044,5286.5936,4322.6044,5255.3436,4335.1044,5267.8436,4322.6044" style="stroke:#181818;stroke-width:3.125;"/><text fill="#0000FF" font-family="Arial" font-size="68.75" font-weight="bold" lengthAdjust="spacing" textLength="343.75" x="4920.9686" y="4254.9103">git svn log</text><rect fill="#EEEEEE" filter="url(#f1t2jlzw8baibg)" height="9.375" style="stroke:#EEEEEE;stroke-width:3.125;" width="7338.1378" x="15.625" y="4437.6007"/><line style="stroke:#000000;stroke-width:3.125;" x1="15.625" x2="7353.7628" y1="4437.6007" y2="4437.6007"/><line style="stroke:#000000;stroke-width:3.125;" x1="15.625" x2="7353.7628" y1="4446.9757" y2="4446.9757"/><rect fill="#EEEEEE" filter="url(#f1t2jlzw8baibg)" height="123.7427" style="stroke:#000000;stroke-width:6.25;" width="339.6606" x="3514.8636" y="4378.8544"/><text fill="#000000" font-family="Arial" font-size="75" font-weight="bold" lengthAdjust="spacing" textLength="262.5732" x="3539.8636" y="4467.9535">browse</text><line style="stroke:#181818;stroke-width:6.25;" x1="5161.5936" x2="5289.7186" y1="4644.1528" y2="4644.1528"/><line style="stroke:#181818;stroke-width:6.25;" x1="5161.5936" x2="5161.5936" y1="4644.1528" y2="4684.7778"/><line style="stroke:#181818;stroke-width:6.25;" x1="5161.5936" x2="5286.5936" y1="4684.7778" y2="4684.7778"/><polygon fill="#181818" points="5255.3436,4672.2778,5286.5936,4684.7778,5255.3436,4697.2778,5267.8436,4684.7778" style="stroke:#181818;stroke-width:3.125;"/><text fill="#000000" font-family="Arial" font-size="68.75" font-weight="bold" lengthAdjust="spacing" textLength="229.0771" x="5035.6415" y="4617.0837">git info</text><line style="stroke:#181818;stroke-width:6.25;" x1="5161.5936" x2="5289.7186" y1="4820.0836" y2="4820.0836"/><line style="stroke:#181818;stroke-width:6.25;" x1="5161.5936" x2="5161.5936" y1="4820.0836" y2="4860.7086"/><line style="stroke:#181818;stroke-width:6.25;" x1="5161.5936" x2="5286.5936" y1="4860.7086" y2="4860.7086"/><polygon fill="#181818" points="5255.3436,4848.2086,5286.5936,4860.7086,5255.3436,4873.2086,5267.8436,4860.7086" style="stroke:#181818;stroke-width:3.125;"/><text fill="#000000" font-family="Arial" font-size="68.75" font-weight="bold" lengthAdjust="spacing" textLength="206.1829" x="5058.5358" y="4793.0145">git log</text><line style="stroke:#181818;stroke-width:6.25;" x1="5161.5936" x2="5289.7186" y1="4996.0144" y2="4996.0144"/><line style="stroke:#181818;stroke-width:6.25;" x1="5161.5936" x2="5161.5936" y1="4996.0144" y2="5036.6394"/><line style="stroke:#181818;stroke-width:6.25;" x1="5161.5936" x2="5286.5936" y1="5036.6394" y2="5036.6394"/><polygon fill="#181818" points="5255.3436,5024.1394,5286.5936,5036.6394,5255.3436,5049.1394,5267.8436,5036.6394" style="stroke:#181818;stroke-width:3.125;"/><text fill="#000000" font-family="Arial" font-size="68.75" font-weight="bold" lengthAdjust="spacing" textLength="320.8893" x="4943.8293" y="4968.9453">git ls-files</text><polygon fill="#181818" points="3139.8438,5159.4452,3108.5938,5171.9452,3139.8438,5184.4452,3127.3438,5171.9452" style="stroke:#181818;stroke-width:3.125;"/><polygon fill="#181818" points="4114.2426,5159.4452,4145.4926,5171.9452,4114.2426,5184.4452,4126.7426,5171.9452" style="stroke:#181818;stroke-width:3.125;"/><line style="stroke:#181818;stroke-width:6.25;" x1="3121.0938" x2="4132.9926" y1="5171.9452" y2="5171.9452"/><text fill="#000000" font-family="Arial" font-size="68.75" font-weight="bold" lengthAdjust="spacing" textLength="706.4667" x="3164.8438" y="5144.8761">git diff/difftool &lt;path&gt;</text><polygon fill="#181818" points="4186.1176,5294.751,4154.8676,5307.251,4186.1176,5319.751,4173.6176,5307.251" style="stroke:#181818;stroke-width:3.125;"/><polygon fill="#181818" points="5255.3436,5294.751,5286.5936,5307.251,5255.3436,5319.751,5267.8436,5307.251" style="stroke:#181818;stroke-width:3.125;"/><line style="stroke:#181818;stroke-width:6.25;" x1="4167.3676" x2="5274.0936" y1="5307.251" y2="5307.251"/><text fill="#000000" font-family="Arial" font-size="68.75" font-weight="bold" lengthAdjust="spacing" textLength="1008.2886" x="4211.1176" y="5280.1819">git diff/difftool --cached &lt;path&gt;</text><line style="stroke:#181818;stroke-width:6.25;" x1="5292.8436" x2="5424.0936" y1="5442.5568" y2="5442.5568"/><line style="stroke:#181818;stroke-width:6.25;" x1="5424.0936" x2="5424.0936" y1="5442.5568" y2="5483.1818"/><line style="stroke:#181818;stroke-width:6.25;" x1="5295.9686" x2="5424.0936" y1="5483.1818" y2="5483.1818"/><polygon fill="#181818" points="5324.0936,5430.0568,5292.8436,5442.5568,5324.0936,5455.0568,5311.5936,5442.5568" style="stroke:#181818;stroke-width:3.125;"/><polygon fill="#181818" points="5327.2186,5470.6818,5295.9686,5483.1818,5327.2186,5495.6818,5314.7186,5483.1818" style="stroke:#181818;stroke-width:3.125;"/><text fill="#000000" font-family="Arial" font-size="68.75" font-weight="bold" lengthAdjust="spacing" textLength="1413.269" x="5320.9686" y="5415.4877">git diff/difftool &lt;commit-ish&gt;..&lt;commit-ish&gt;</text><polygon fill="#181818" points="3139.8438,5605.9875,3108.5938,5618.4875,3139.8438,5630.9875,3127.3438,5618.4875" style="stroke:#181818;stroke-width:3.125;"/><polygon fill="#181818" points="5255.3436,5605.9875,5286.5936,5618.4875,5255.3436,5630.9875,5267.8436,5618.4875" style="stroke:#181818;stroke-width:3.125;"/><line style="stroke:#181818;stroke-width:6.25;" x1="3121.0938" x2="5274.0936" y1="5618.4875" y2="5618.4875"/><text fill="#000000" font-family="Arial" font-size="68.75" font-weight="bold" lengthAdjust="spacing" textLength="252.0721" x="3164.8438" y="5591.4185">git grep</text><polygon fill="#181818" points="3139.8438,5741.2933,3108.5938,5753.7933,3139.8438,5766.2933,3127.3438,5753.7933" style="stroke:#181818;stroke-width:3.125;"/><polygon fill="#181818" points="5255.3436,5741.2933,5286.5936,5753.7933,5255.3436,5766.2933,5267.8436,5753.7933" style="stroke:#181818;stroke-width:3.125;"/><line style="stroke:#181818;stroke-width:6.25;" x1="3121.0938" x2="5274.0936" y1="5753.7933" y2="5753.7933"/><text fill="#000000" font-family="Arial" font-size="68.75" font-weight="bold" lengthAdjust="spacing" textLength="301.7883" x="3164.8438" y="5726.7242">git blame</text><rect fill="#EEEEEE" filter="url(#f1t2jlzw8baibg)" height="9.375" style="stroke:#EEEEEE;stroke-width:3.125;" width="7338.1378" x="15.625" y="5868.7897"/><line style="stroke:#000000;stroke-width:3.125;" x1="15.625" x2="7353.7628" y1="5868.7897" y2="5868.7897"/><line style="stroke:#000000;stroke-width:3.125;" x1="15.625" x2="7353.7628" y1="5878.1647" y2="5878.1647"/><rect fill="#EEEEEE" filter="url(#f1t2jlzw8baibg)" height="123.7427" style="stroke:#000000;stroke-width:6.25;" width="410.5591" x="3479.4144" y="5810.0433"/><text fill="#000000" font-family="Arial" font-size="75" font-weight="bold" lengthAdjust="spacing" textLength="333.4717" x="3504.4144" y="5899.1425">branches</text><line style="stroke:#181818;stroke-width:6.25;" x1="5292.8436" x2="5424.0936" y1="6075.3418" y2="6075.3418"/><line style="stroke:#181818;stroke-width:6.25;" x1="5424.0936" x2="5424.0936" y1="6075.3418" y2="6115.9668"/><line style="stroke:#181818;stroke-width:6.25;" x1="5295.9686" x2="5424.0936" y1="6115.9668" y2="6115.9668"/><polygon fill="#181818" points="5324.0936,6062.8418,5292.8436,6075.3418,5324.0936,6087.8418,5311.5936,6075.3418" style="stroke:#181818;stroke-width:3.125;"/><polygon fill="#181818" points="5327.2186,6103.4668,5295.9686,6115.9668,5327.2186,6128.4668,5314.7186,6115.9668" style="stroke:#181818;stroke-width:3.125;"/><text fill="#000000" font-family="Arial" font-size="68.75" font-weight="bold" lengthAdjust="spacing" textLength="1371.2067" x="5320.9686" y="6048.2727">git branch (list)/(add)/(remove)/(configure)</text><rect fill="#EEEEEE" filter="url(#f1t2jlzw8baibg)" height="9.375" style="stroke:#EEEEEE;stroke-width:3.125;" width="7338.1378" x="15.625" y="6230.9631"/><line style="stroke:#000000;stroke-width:3.125;" x1="15.625" x2="7353.7628" y1="6230.9631" y2="6230.9631"/><line style="stroke:#000000;stroke-width:3.125;" x1="15.625" x2="7353.7628" y1="6240.3381" y2="6240.3381"/><rect fill="#EEEEEE" filter="url(#f1t2jlzw8baibg)" height="123.7427" style="stroke:#000000;stroke-width:6.25;" width="273.0103" x="3548.1888" y="6172.2168"/><text fill="#000000" font-family="Arial" font-size="75" font-weight="bold" lengthAdjust="spacing" textLength="195.9229" x="3573.1888" y="6261.3159">stash</text><polygon fill="#181818" points="4625.0214,6425.0153,4656.2714,6437.5153,4625.0214,6450.0153,4637.5214,6437.5153" style="stroke:#181818;stroke-width:3.125;"/><line style="stroke:#181818;stroke-width:6.25;" x1="3105.4688" x2="4643.7714" y1="6437.5153" y2="6437.5153"/><text fill="#000000" font-family="Arial" font-size="68.75" font-weight="bold" lengthAdjust="spacing" textLength="282.6874" x="3133.5938" y="6410.4462">git stash</text><polygon fill="#181818" points="3139.8438,6560.321,3108.5938,6572.821,3139.8438,6585.321,3127.3438,6572.821" style="stroke:#181818;stroke-width:3.125;"/><line style="stroke:#181818;stroke-width:6.25;" x1="3121.0938" x2="4659.3964" y1="6572.821" y2="6572.821"/><text fill="#000000" font-family="Arial" font-size="68.75" font-weight="bold" lengthAdjust="spacing" textLength="481.3507" x="3164.8438" y="6545.752">git stash apply</text><polygon fill="#181818" points="3139.8438,6695.6268,3108.5938,6708.1268,3139.8438,6720.6268,3127.3438,6708.1268" style="stroke:#181818;stroke-width:3.125;"/><line style="stroke:#181818;stroke-width:6.25;" x1="3121.0938" x2="4659.3964" y1="6708.1268" y2="6708.1268"/><text fill="#000000" font-family="Arial" font-size="68.75" font-weight="bold" lengthAdjust="spacing" textLength="427.774" x="3164.8438" y="6681.0577">git stash pop</text><line style="stroke:#181818;stroke-width:6.25;" x1="4531.2714" x2="4659.3964" y1="6843.4326" y2="6843.4326"/><line style="stroke:#181818;stroke-width:6.25;" x1="4531.2714" x2="4531.2714" y1="6843.4326" y2="6884.0576"/><line style="stroke:#181818;stroke-width:6.25;" x1="4531.2714" x2="4656.2714" y1="6884.0576" y2="6884.0576"/><polygon fill="#181818" points="4625.0214,6871.5576,4656.2714,6884.0576,4625.0214,6896.5576,4637.5214,6884.0576" style="stroke:#181818;stroke-width:3.125;"/><text fill="#000000" font-family="Arial" font-size="68.75" font-weight="bold" lengthAdjust="spacing" textLength="454.5288" x="4179.8676" y="6816.3635">git stash drop</text><rect fill="#EEEEEE" filter="url(#f1t2jlzw8baibg)" height="9.375" style="stroke:#EEEEEE;stroke-width:3.125;" width="7338.1378" x="15.625" y="6999.054"/><line style="stroke:#000000;stroke-width:3.125;" x1="15.625" x2="7353.7628" y1="6999.054" y2="6999.054"/><line style="stroke:#000000;stroke-width:3.125;" x1="15.625" x2="7353.7628" y1="7008.429" y2="7008.429"/><rect fill="#EEEEEE" filter="url(#f1t2jlzw8baibg)" height="123.7427" style="stroke:#000000;stroke-width:6.25;" width="389.7217" x="3489.8331" y="6940.3076"/><text fill="#000000" font-family="Arial" font-size="75" font-weight="bold" lengthAdjust="spacing" textLength="312.6343" x="3514.8331" y="7029.4067">worktree</text><polygon fill="#181818" points="2185.5896,7193.1061,2154.3396,7205.6061,2185.5896,7218.1061,2173.0896,7205.6061" style="stroke:#181818;stroke-width:3.125;"/><polygon fill="#181818" points="5255.3436,7193.1061,5286.5936,7205.6061,5255.3436,7218.1061,5267.8436,7205.6061" style="stroke:#181818;stroke-width:3.125;"/><line style="stroke:#181818;stroke-width:6.25;" x1="2166.8396" x2="5274.0936" y1="7205.6061" y2="7205.6061"/><text fill="#000000" font-family="Arial" font-size="68.75" font-weight="bold" lengthAdjust="spacing" textLength="530.9998" x="2210.5896" y="7178.537">git worktree add</text><polygon fill="#181818" points="2185.5896,7328.4119,2154.3396,7340.9119,2185.5896,7353.4119,2173.0896,7340.9119" style="stroke:#181818;stroke-width:3.125;"/><polygon fill="#181818" points="5255.3436,7328.4119,5286.5936,7340.9119,5255.3436,7353.4119,5267.8436,7340.9119" style="stroke:#181818;stroke-width:3.125;"/><line style="stroke:#181818;stroke-width:6.25;" x1="2166.8396" x2="5274.0936" y1="7340.9119" y2="7340.9119"/><text fill="#000000" font-family="Arial" font-size="68.75" font-weight="bold" lengthAdjust="spacing" textLength="653.36" x="2210.5896" y="7313.8428">git worktree remove</text><line style="stroke:#181818;stroke-width:6.25;" x1="5292.8436" x2="5424.0936" y1="7476.2177" y2="7476.2177"/><line style="stroke:#181818;stroke-width:6.25;" x1="5424.0936" x2="5424.0936" y1="7476.2177" y2="7516.8427"/><line style="stroke:#181818;stroke-width:6.25;" x1="5295.9686" x2="5424.0936" y1="7516.8427" y2="7516.8427"/><polygon fill="#181818" points="5324.0936,7463.7177,5292.8436,7476.2177,5324.0936,7488.7177,5311.5936,7476.2177" style="stroke:#181818;stroke-width:3.125;"/><polygon fill="#181818" points="5327.2186,7504.3427,5295.9686,7516.8427,5327.2186,7529.3427,5314.7186,7516.8427" style="stroke:#181818;stroke-width:3.125;"/><text fill="#000000" font-family="Arial" font-size="68.75" font-weight="bold" lengthAdjust="spacing" textLength="508.1055" x="5320.9686" y="7449.1486">git worktree list</text><polygon fill="#181818" points="3067.9688,7639.6484,3099.2188,7652.1484,3067.9688,7664.6484,3080.4688,7652.1484" style="stroke:#181818;stroke-width:3.125;"/><line style="stroke:#181818;stroke-width:6.25;" x1="2151.2146" x2="3086.7188" y1="7652.1484" y2="7652.1484"/><text fill="#000000" font-family="Arial" font-size="68.75" font-weight="bold" lengthAdjust="spacing" textLength="584.3414" x="2179.3396" y="7625.0793">git merge --only-ff</text><path d="M31.25,7557.4677 L31.25,7835.5927 L2125,7835.5927 L2125,7588.7177 L2093.75,7557.4677 L31.25,7557.4677 " fill="#FEFFDD" filter="url(#f1t2jlzw8baibg)" style="stroke:#181818;stroke-width:1.5625;"/><path d="M2093.75,7557.4677 L2093.75,7588.7177 L2125,7588.7177 L2093.75,7557.4677 " fill="#FEFFDD" style="stroke:#181818;stroke-width:1.5625;"/><text fill="#000000" font-family="Arial" font-size="68.75" font-weight="bold" lengthAdjust="spacing" textLength="1944.4702" x="106.4972" y="7643.8293">merge with fast forward only in case of integrating changes</text><text fill="#000000" font-family="Arial" font-size="68.75" font-weight="bold" lengthAdjust="spacing" textLength="1761.6516" x="207.457" y="7722.8851">from 'feature branches' to 'git managed svn branches'</text><text fill="#000000" font-family="Arial" font-size="68.75" font-weight="bold" lengthAdjust="spacing" textLength="1988.7146" x="84.375" y="7801.9409">(usually requires rebase on 'feature branch' to be run before)</text><polygon fill="#181818" points="3139.8438,7639.6484,3108.5938,7652.1484,3139.8438,7664.6484,3127.3438,7652.1484" style="stroke:#181818;stroke-width:3.125;"/><polygon fill="#181818" points="5255.3436,7639.6484,5286.5936,7652.1484,5255.3436,7664.6484,5267.8436,7652.1484" style="stroke:#181818;stroke-width:3.125;"/><line style="stroke:#181818;stroke-width:6.25;" x1="3121.0938" x2="5274.0936" y1="7652.1484" y2="7652.1484"/><polygon fill="#181818" points="2185.5896,7961.1908,2154.3396,7973.6908,2185.5896,7986.1908,2173.0896,7973.6908" style="stroke:#181818;stroke-width:3.125;"/><line style="stroke:#181818;stroke-width:6.25;" x1="2166.8396" x2="3102.3438" y1="7973.6908" y2="7973.6908"/><text fill="#000000" font-family="Arial" font-size="68.75" font-weight="bold" lengthAdjust="spacing" textLength="324.7833" x="2210.5896" y="7946.6217">git rebase</text><path d="M392.1539,7879.01 L392.1539,8079.01 L2123.4039,8079.01 L2123.4039,7910.26 L2092.1539,7879.01 L392.1539,7879.01 " fill="#FEFFDD" filter="url(#f1t2jlzw8baibg)" style="stroke:#181818;stroke-width:1.5625;"/><path d="M2092.1539,7879.01 L2092.1539,7910.26 L2123.4039,7910.26 L2092.1539,7879.01 " fill="#FEFFDD" style="stroke:#181818;stroke-width:1.5625;"/><text fill="#000000" font-family="Arial" font-size="68.75" font-weight="bold" lengthAdjust="spacing" textLength="1230.249" x="644.0598" y="7965.3717">rebase in case of integrating changes</text><text fill="#000000" font-family="Arial" font-size="68.75" font-weight="bold" lengthAdjust="spacing" textLength="1608.7097" x="464.3799" y="8044.4275">from 'git managed svn branch' to 'feature branch'</text><polygon fill="#181818" points="3139.8438,7961.1908,3108.5938,7973.6908,3139.8438,7986.1908,3127.3438,7973.6908" style="stroke:#181818;stroke-width:3.125;"/><polygon fill="#181818" points="5255.3436,7961.1908,5286.5936,7973.6908,5255.3436,7986.1908,5267.8436,7973.6908" style="stroke:#181818;stroke-width:3.125;"/><line style="stroke:#181818;stroke-width:6.25;" x1="3121.0938" x2="5274.0936" y1="7973.6908" y2="7973.6908"/><!--SRC=[lLTjRzis4FwkNt59WShv8Biei0q970Dnt6q5sXL8Xct0CXIqTBA9IAHAKdOyzCVlI4goPCils5iG919vTyyzTyVZwQ9GR94pC2Z_1ADA388BBkAiJ11IgN9cXcMUNVZ7833SP0YNFxp_6Hv_-GaYa0KgPhWKe313PZ21MEOv4md85QeLn_Lb4Cpb2rncCcRP9RoQtSzcixi0mAq-aYWz351VsRstzzFxDxHNxKgpH0LhgPwDGXpeAnZ8miAnp8fFftVJwxTE721XXisP9lS-MQqdyIkfwOB5LkyIW6dG7kopC-lKa1obbItY86TSN3MG17B_pVJRwra54dRTfksKVXZRyw41Vn8Tx1tKxPCpEwlr1yC5DpqHwNgpXNiqR45G0ouIVB5imOFQvLwYXs97XlIoyTc-751_SptzxjsU-WURP7Z0GcfkfDeuIzuNHOkVNH4SY47ztvUBmbmQtAsNDlyjQfMq1wVIGH_WS344gVY21BgkU80MVjYDJDXJLAtoUn9xS0FkgdWVf2gui8VhxIreD6K1jxT1ImEYIJjWhrilTgig9hY1SIg5eJENINKxpqgSKDs0NWc8CodGsIyBOe4myaUKk11K4DOch3LR9MJBgh8a2GA_q76XshQ7crCZEA3jjo5Yv76FaI3eqcWJFa8bgL5RskFeNEqKJRpSUZpUfNLGKQ7Dl0jXogdjDRrEkmWU3M3_dieFRkKhoWby__wtZ-zk29bgmhuJj4BgeuQo5rC9gKrKyFZPueT0lmT9EJIlEVRHcv2uiA7AC3KtLBMxcwVCjV7xRTuLHRO1NM3CKnutGk3EOAfa3hwVpnKJb187wHXgEZtOGweRl4fiR9CXM8vVRqOJ-FHW7OkVPKbb5tKtTnbxVNA1iYqC2gD1fi1yTiaGopBthC589-RXjyBAAvTAqJjG0BMz-NXgORnmGfXrwOz_VsNhwO-eVGBEOHX5tjP_oyRUqQNmYyxAaea5wZqFU-ggSLEMAiOwqH7Noyc_vJFRrb4TvmHJBX3Mt2mxa4_2SQ7Ujk9Y0UGX5ot2r8gvFZFk1QDUqQ7mzHzmA9Wod5utv92XtX4Rlg9B-a1nfMSLr_aiUgleVwEpMrsQxfxOZOTDcHqz9xRhvbp7dLRRp_ZWVjqOZlLg2bEBZIDi5tdG2jAZyzrksxs68X7tyrLmeWsx0QABqpJGFHWNkLmcFDrKrsceOP2ZrWGrgi172SaQ72cKAa4rIldBI7yfQLeZYNnEnsGq70xTZB9Mt53oVkJQJqGVIsr02ihY726X6S7E-HKISLeoye0AmXPTDIyaZYbTY1iq5ounSoNNHAc-A9kJsitLkVViFAFQxBtSJwfoaSg_fvd9HPkAzVo8cOLhAYUmh90pUqf6H-v0TMFLhajAVZgoVuoKP8FEyt9IJsMzDTPLYAAOKUqdZMR7ePFgxTuw7BRVx4XoWboLpACdOa4h9qGgCov1TbX0lP-YFZKd38ECglrgDA3ZId_jYBX2Ug33a_95gV3ApztswwPdbAD5Ryr__knqb-ukC3lpd90fPE6oHu-z-uco0Y6vH1bsHCCWF4MLH1sB-akrJSH_R_JhDVBjGVKi1H_7qqbe56mMTY4w7ozky4LbFnCYsvAYD6qtHB_bxlkKKTUYHhLcAl7TY-xusFPLkgniOrtOqPnk_-fwePd03PnXYinGnfio2cqp2nqm4-vwT2setgKlnbANxf9J-ANaTCNK3PmkunrhpXPrKLMI1IJlgB1U7nYYzqEz4uVgQwD5ly8zasW_9Kztn-qZJlu5]--></g></svg>