<svg xmlns="http://www.w3.org/2000/svg" xmlns:xlink="http://www.w3.org/1999/xlink" contentStyleType="text/css" data-diagram-type="SEQUENCE" height="5875px" preserveAspectRatio="none" style="width:7196px;height:5875px;background:#FFFFFF;" version="1.1" viewBox="0 0 7196 5875" width="7196.875px" zoomAndPan="magnify"><title>Subversion (SVN) - operation releated command overview</title><defs><filter height="300%" id="f16911ztzixsge" width="300%" x="-1" y="-1"><feGaussianBlur result="blurOut" stdDeviation="6.25"/><feColorMatrix in="blurOut" result="blurOut2" type="matrix" values="0 0 0 0 0 0 0 0 0 0 0 0 0 0 0 0 0 0 .4 0"/><feOffset dx="12.5" dy="12.5" in="blurOut2" result="blurOut3"/><feBlend in="SourceGraphic" in2="blurOut3" mode="normal"/></filter></defs><g><rect fill="#DCDDDA" height="5622.8882" style="stroke:#181818;stroke-width:1.5625;" width="1653.0731" x="1610.5621" y="233.4259"/><text fill="#000000" font-family="Arial" font-size="75" font-weight="bold" lengthAdjust="spacing" textLength="170.9106" x="2351.6434" y="310.025">local</text><rect fill="#D2CBC0" height="5508.5205" style="stroke:#181818;stroke-width:1.5625;" width="649.2676" x="1610.5621" y="347.7936"/><text fill="#000000" font-family="Arial" font-size="75" font-weight="bold" lengthAdjust="spacing" textLength="316.6992" x="1776.8463" y="424.3927">Sandbox</text><rect fill="#D2CBC0" height="5508.5205" style="stroke:#181818;stroke-width:1.5625;" width="641.8701" x="2621.7651" y="347.7936"/><text fill="#000000" font-family="Arial" font-size="75" font-weight="bold" lengthAdjust="spacing" textLength="554.3701" x="2665.5151" y="424.3927">Database (.svn)</text><rect fill="#DCDDDA" height="5622.8882" style="stroke:#181818;stroke-width:1.5625;" width="1846.5546" x="3920.8191" y="233.4259"/><text fill="#000000" font-family="Arial" font-size="75" font-weight="bold" lengthAdjust="spacing" textLength="250.0854" x="4719.0536" y="310.025">remote</text><rect fill="#C5B69D" height="5508.5205" style="stroke:#181818;stroke-width:1.5625;" width="839.0503" x="3920.8191" y="347.7936"/><rect fill="#BBAB92" height="5508.5205" style="stroke:#181818;stroke-width:1.5625;" width="839.0503" x="4928.3234" y="347.7936"/><text fill="#000000" font-family="Arial" font-size="118.75" font-weight="bold" lengthAdjust="spacing" textLength="3273.0469" x="3494.9478" y="164.5111">Subversion (SVN) - operation releated command overview</text><g><title>Working Copy</title><rect fill="transparent" height="5021.0449" width="25" x="1924.2584" y="816.5192"/><line style="stroke:#1A1C20;stroke-width:1.5625;" x1="1935.1959" x2="1935.1959" y1="816.5192" y2="5837.5641"/></g><g><title>database</title><rect fill="transparent" height="5021.0449" width="25" x="2931.7627" y="816.5192"/><line style="stroke:#1A1C20;stroke-width:1.5625;" x1="2942.7002" x2="2942.7002" y1="816.5192" y2="5837.5641"/></g><g><title>Central Repository</title><rect fill="transparent" height="5021.0449" width="25" x="4329.4067" y="816.5192"/><line style="stroke:#1A1C20;stroke-width:1.5625;" x1="4340.3442" x2="4340.3442" y1="816.5192" y2="5837.5641"/></g><g><title>Other</title><rect fill="transparent" height="5021.0449" width="25" x="5336.911" y="816.5192"/><line style="stroke:#1A1C20;stroke-width:1.5625;" x1="5347.8485" x2="5347.8485" y1="816.5192" y2="5837.5641"/></g><text fill="#000000" font-family="Arial" font-size="87.5" font-weight="bold" lengthAdjust="spacing" textLength="593.0176" x="1629.3121" y="691.1102">Working Copy</text><text fill="#000000" font-family="Arial" font-size="87.5" font-weight="bold" lengthAdjust="spacing" textLength="24.3103" x="1913.6658" y="791.7267">&#160;</text><path d="M1878.9459,490.2863 C1878.9459,459.0363 1935.1959,459.0363 1935.1959,459.0363 C1935.1959,459.0363 1991.4459,459.0363 1991.4459,490.2863 L1991.4459,571.5363 C1991.4459,602.7863 1935.1959,602.7863 1935.1959,602.7863 C1935.1959,602.7863 1878.9459,602.7863 1878.9459,571.5363 L1878.9459,490.2863 " fill="#B09B7E" filter="url(#f16911ztzixsge)" style="stroke:#1A1C20;stroke-width:4.6875;"/><path d="M1878.9459,490.2863 C1878.9459,521.5363 1935.1959,521.5363 1935.1959,521.5363 C1935.1959,521.5363 1991.4459,521.5363 1991.4459,490.2863 " fill="transparent" style="stroke:#1A1C20;stroke-width:4.6875;"/><text fill="#000000" font-family="Arial" font-size="87.5" font-weight="bold" lengthAdjust="spacing" textLength="379.3518" x="2743.6493" y="691.1102">database</text><text fill="#000000" font-family="Arial" font-size="87.5" font-weight="bold" lengthAdjust="spacing" textLength="24.3103" x="2921.17" y="791.7267">&#160;</text><path d="M2886.4502,490.2863 C2886.4502,459.0363 2942.7002,459.0363 2942.7002,459.0363 C2942.7002,459.0363 2998.9502,459.0363 2998.9502,490.2863 L2998.9502,571.5363 C2998.9502,602.7863 2942.7002,602.7863 2942.7002,602.7863 C2942.7002,602.7863 2886.4502,602.7863 2886.4502,571.5363 L2886.4502,490.2863 " fill="#B09B7E" filter="url(#f16911ztzixsge)" style="stroke:#1A1C20;stroke-width:4.6875;"/><path d="M2886.4502,490.2863 C2886.4502,521.5363 2942.7002,521.5363 2942.7002,521.5363 C2942.7002,521.5363 2998.9502,521.5363 2998.9502,490.2863 " fill="transparent" style="stroke:#1A1C20;stroke-width:4.6875;"/><text fill="#000000" font-family="Arial" font-size="87.5" font-weight="bold" lengthAdjust="spacing" textLength="782.8003" x="3939.5691" y="691.1102">Central Repository</text><text fill="#000000" font-family="Arial" font-size="87.5" font-weight="bold" lengthAdjust="spacing" textLength="24.3103" x="4318.8141" y="791.7267">&#160;</text><path d="M4284.0942,490.2863 C4284.0942,459.0363 4340.3442,459.0363 4340.3442,459.0363 C4340.3442,459.0363 4396.5942,459.0363 4396.5942,490.2863 L4396.5942,571.5363 C4396.5942,602.7863 4340.3442,602.7863 4340.3442,602.7863 C4340.3442,602.7863 4284.0942,602.7863 4284.0942,571.5363 L4284.0942,490.2863 " fill="#B09B7E" filter="url(#f16911ztzixsge)" style="stroke:#1A1C20;stroke-width:4.6875;"/><path d="M4284.0942,490.2863 C4284.0942,521.5363 4340.3442,521.5363 4340.3442,521.5363 C4340.3442,521.5363 4396.5942,521.5363 4396.5942,490.2863 " fill="transparent" style="stroke:#1A1C20;stroke-width:4.6875;"/><text fill="#000000" font-family="Arial" font-size="87.5" font-weight="bold" lengthAdjust="spacing" textLength="233.3618" x="5221.7926" y="691.1102">Other</text><text fill="#000000" font-family="Arial" font-size="87.5" font-weight="bold" lengthAdjust="spacing" textLength="782.8003" x="4947.0734" y="791.7267">Central Repository</text><path d="M5291.5985,490.2863 C5291.5985,459.0363 5347.8485,459.0363 5347.8485,459.0363 C5347.8485,459.0363 5404.0985,459.0363 5404.0985,490.2863 L5404.0985,571.5363 C5404.0985,602.7863 5347.8485,602.7863 5347.8485,602.7863 C5347.8485,602.7863 5291.5985,602.7863 5291.5985,571.5363 L5291.5985,490.2863 " fill="#B09B7E" filter="url(#f16911ztzixsge)" style="stroke:#1A1C20;stroke-width:4.6875;"/><path d="M5291.5985,490.2863 C5291.5985,521.5363 5347.8485,521.5363 5347.8485,521.5363 C5347.8485,521.5363 5404.0985,521.5363 5404.0985,490.2863 " fill="transparent" style="stroke:#1A1C20;stroke-width:4.6875;"/><rect fill="#EEEEEE" filter="url(#f16911ztzixsge)" height="9.375" style="stroke:#EEEEEE;stroke-width:3.125;" width="7144.9432" x="15.625" y="931.5155"/><line style="stroke:#000000;stroke-width:3.125;" x1="15.625" x2="7160.5682" y1="931.5155" y2="931.5155"/><line style="stroke:#000000;stroke-width:3.125;" x1="15.625" x2="7160.5682" y1="940.8905" y2="940.8905"/><rect fill="#EEEEEE" filter="url(#f16911ztzixsge)" height="123.7427" style="stroke:#000000;stroke-width:6.25;" width="510.4248" x="3332.8842" y="872.7692"/><text fill="#000000" font-family="Arial" font-size="75" font-weight="bold" lengthAdjust="spacing" textLength="433.3374" x="3357.8842" y="961.8683">Initialization</text><polygon fill="#181818" points="1969.5709,1125.5676,1938.3209,1138.0676,1969.5709,1150.5676,1957.0709,1138.0676" style="stroke:#181818;stroke-width:3.125;"/><line style="stroke:#181818;stroke-width:6.25;" x1="1950.8209" x2="2939.5752" y1="1138.0676" y2="1138.0676"/><text fill="#000000" font-family="Arial" font-size="68.75" font-weight="bold" lengthAdjust="spacing" textLength="301.8219" x="1994.5709" y="1110.9985">checkout</text><polygon fill="#181818" points="2977.0752,1125.5676,2945.8252,1138.0676,2977.0752,1150.5676,2964.5752,1138.0676" style="stroke:#181818;stroke-width:3.125;"/><line style="stroke:#181818;stroke-width:6.25;" x1="2958.3252" x2="4337.2192" y1="1138.0676" y2="1138.0676"/><rect fill="#EEEEEE" filter="url(#f16911ztzixsge)" height="9.375" style="stroke:#EEEEEE;stroke-width:3.125;" width="7144.9432" x="15.625" y="1253.064"/><line style="stroke:#000000;stroke-width:3.125;" x1="15.625" x2="7160.5682" y1="1253.064" y2="1253.064"/><line style="stroke:#000000;stroke-width:3.125;" x1="15.625" x2="7160.5682" y1="1262.439" y2="1262.439"/><rect fill="#EEEEEE" filter="url(#f16911ztzixsge)" height="123.7427" style="stroke:#000000;stroke-width:6.25;" width="677.3438" x="3249.4247" y="1194.3176"/><text fill="#000000" font-family="Arial" font-size="75" font-weight="bold" lengthAdjust="spacing" textLength="600.2563" x="3274.4247" y="1283.4167">Update / Release</text><polygon fill="#181818" points="1969.5709,1447.1161,1938.3209,1459.6161,1969.5709,1472.1161,1957.0709,1459.6161" style="stroke:#181818;stroke-width:3.125;"/><line style="stroke:#181818;stroke-width:6.25;" x1="1950.8209" x2="2939.5752" y1="1459.6161" y2="1459.6161"/><text fill="#000000" font-family="Arial" font-size="68.75" font-weight="bold" lengthAdjust="spacing" textLength="374.231" x="1994.5709" y="1432.547">update (up)</text><path d="M657.8888,1364.9353 L657.8888,1486.8103 L1907.8888,1486.8103 L1907.8888,1396.1853 L1876.6388,1364.9353 L657.8888,1364.9353 " fill="#FEFFDD" filter="url(#f16911ztzixsge)" style="stroke:#181818;stroke-width:1.5625;"/><path d="M1876.6388,1364.9353 L1876.6388,1396.1853 L1907.8888,1396.1853 L1876.6388,1364.9353 " fill="#FEFFDD" style="stroke:#181818;stroke-width:1.5625;"/><text fill="#000000" font-family="Arial" font-size="68.75" font-weight="bold" lengthAdjust="spacing" textLength="1146.0571" x="711.0138" y="1451.297">update sandbox with latest version</text><polygon fill="#181818" points="2977.0752,1447.1161,2945.8252,1459.6161,2977.0752,1472.1161,2964.5752,1459.6161" style="stroke:#181818;stroke-width:3.125;"/><line style="stroke:#181818;stroke-width:6.25;" x1="2958.3252" x2="4337.2192" y1="1459.6161" y2="1459.6161"/><polygon fill="#181818" points="2905.2002,1610.5469,2936.4502,1623.0469,2905.2002,1635.5469,2917.7002,1623.0469" style="stroke:#181818;stroke-width:3.125;"/><line style="stroke:#181818;stroke-width:6.25;" x1="1935.1959" x2="2923.9502" y1="1623.0469" y2="1623.0469"/><text fill="#000000" font-family="Arial" font-size="68.75" font-weight="bold" lengthAdjust="spacing" textLength="366.7114" x="1963.3209" y="1595.9778">commit (ci)</text><polygon fill="#181818" points="4302.8442,1610.5469,4334.0942,1623.0469,4302.8442,1635.5469,4315.3442,1623.0469" style="stroke:#181818;stroke-width:3.125;"/><line style="stroke:#181818;stroke-width:6.25;" x1="2942.7002" x2="4321.5942" y1="1623.0469" y2="1623.0469"/><rect fill="#EEEEEE" filter="url(#f16911ztzixsge)" height="9.375" style="stroke:#EEEEEE;stroke-width:3.125;" width="7144.9432" x="15.625" y="1738.0432"/><line style="stroke:#000000;stroke-width:3.125;" x1="15.625" x2="7160.5682" y1="1738.0432" y2="1738.0432"/><line style="stroke:#000000;stroke-width:3.125;" x1="15.625" x2="7160.5682" y1="1747.4182" y2="1747.4182"/><rect fill="#EEEEEE" filter="url(#f16911ztzixsge)" height="123.7427" style="stroke:#000000;stroke-width:6.25;" width="348.0103" x="3414.0915" y="1679.2969"/><text fill="#000000" font-family="Arial" font-size="75" font-weight="bold" lengthAdjust="spacing" textLength="270.9229" x="3439.0915" y="1768.396">Browse</text><line style="stroke:#181818;stroke-width:6.25;" x1="2811.4502" x2="2939.5752" y1="1944.5953" y2="1944.5953"/><line style="stroke:#181818;stroke-width:6.25;" x1="2811.4502" x2="2811.4502" y1="1944.5953" y2="1985.2203"/><line style="stroke:#181818;stroke-width:6.25;" x1="2811.4502" x2="2936.4502" y1="1985.2203" y2="1985.2203"/><polygon fill="#181818" points="2905.2002,1972.7203,2936.4502,1985.2203,2905.2002,1997.7203,2917.7002,1985.2203" style="stroke:#181818;stroke-width:3.125;"/><text fill="#000000" font-family="Arial" font-size="68.75" font-weight="bold" lengthAdjust="spacing" textLength="125.9857" x="2788.5895" y="1917.5262">info</text><polygon fill="#0000FF" points="2977.0752,2115.8386,2945.8252,2128.3386,2977.0752,2140.8386,2964.5752,2128.3386" style="stroke:#0000FF;stroke-width:3.125;"/><line style="stroke:#0000FF;stroke-width:6.25;" x1="2958.3252" x2="4337.2192" y1="2128.3386" y2="2128.3386"/><line style="stroke:#181818;stroke-width:6.25;" x1="2811.4502" x2="2939.5752" y1="2120.5261" y2="2120.5261"/><line style="stroke:#181818;stroke-width:6.25;" x1="2811.4502" x2="2811.4502" y1="2120.5261" y2="2161.1511"/><line style="stroke:#181818;stroke-width:6.25;" x1="2811.4502" x2="2936.4502" y1="2161.1511" y2="2161.1511"/><polygon fill="#181818" points="2905.2002,2148.6511,2936.4502,2161.1511,2905.2002,2173.6511,2917.7002,2161.1511" style="stroke:#181818;stroke-width:3.125;"/><text fill="#000000" font-family="Arial" font-size="68.75" font-weight="bold" lengthAdjust="spacing" textLength="103.0914" x="2811.4838" y="2093.457">log</text><polygon fill="#0000FF" points="2977.0752,2291.7694,2945.8252,2304.2694,2977.0752,2316.7694,2964.5752,2304.2694" style="stroke:#0000FF;stroke-width:3.125;"/><line style="stroke:#0000FF;stroke-width:6.25;" x1="2958.3252" x2="4337.2192" y1="2304.2694" y2="2304.2694"/><text fill="#000000" font-family="Arial" font-size="68.75" font-weight="bold" lengthAdjust="spacing" textLength="1310.144" x="3002.0752" y="2277.2003">in case of update information (status -u)</text><line style="stroke:#181818;stroke-width:6.25;" x1="2811.4502" x2="2939.5752" y1="2296.4569" y2="2296.4569"/><line style="stroke:#181818;stroke-width:6.25;" x1="2811.4502" x2="2811.4502" y1="2296.4569" y2="2337.0819"/><line style="stroke:#181818;stroke-width:6.25;" x1="2811.4502" x2="2936.4502" y1="2337.0819" y2="2337.0819"/><polygon fill="#181818" points="2905.2002,2324.5819,2936.4502,2337.0819,2905.2002,2349.5819,2917.7002,2337.0819" style="stroke:#181818;stroke-width:3.125;"/><text fill="#000000" font-family="Arial" font-size="68.75" font-weight="bold" lengthAdjust="spacing" textLength="488.9709" x="2425.6042" y="2269.3878">status (stat, st)</text><line style="stroke:#181818;stroke-width:6.25;" x1="4340.3442" x2="4471.5942" y1="2472.3877" y2="2472.3877"/><line style="stroke:#181818;stroke-width:6.25;" x1="4471.5942" x2="4471.5942" y1="2472.3877" y2="2513.0127"/><line style="stroke:#181818;stroke-width:6.25;" x1="4343.4692" x2="4471.5942" y1="2513.0127" y2="2513.0127"/><polygon fill="#181818" points="4374.7192,2500.5127,4343.4692,2513.0127,4374.7192,2525.5127,4362.2192,2513.0127" style="stroke:#181818;stroke-width:3.125;"/><text fill="#000000" font-family="Arial" font-size="68.75" font-weight="bold" lengthAdjust="spacing" textLength="106.8848" x="4368.4692" y="2445.3186">diff</text><polygon fill="#0000FF" points="2977.0752,2467.7002,2945.8252,2480.2002,2977.0752,2492.7002,2964.5752,2480.2002" style="stroke:#0000FF;stroke-width:3.125;"/><line style="stroke:#0000FF;stroke-width:6.25;" x1="2958.3252" x2="4337.2192" y1="2480.2002" y2="2480.2002"/><text fill="#000000" font-family="Arial" font-size="68.75" font-weight="bold" lengthAdjust="spacing" textLength="912.9852" x="3002.0752" y="2453.1311">in case of revision option(s)</text><line style="stroke:#181818;stroke-width:6.25;" x1="2811.4502" x2="2939.5752" y1="2472.3877" y2="2472.3877"/><line style="stroke:#181818;stroke-width:6.25;" x1="2811.4502" x2="2811.4502" y1="2472.3877" y2="2513.0127"/><line style="stroke:#181818;stroke-width:6.25;" x1="2811.4502" x2="2936.4502" y1="2513.0127" y2="2513.0127"/><polygon fill="#181818" points="2905.2002,2500.5127,2936.4502,2513.0127,2905.2002,2525.5127,2917.7002,2513.0127" style="stroke:#181818;stroke-width:3.125;"/><text fill="#000000" font-family="Arial" font-size="68.75" font-weight="bold" lengthAdjust="spacing" textLength="106.8848" x="2807.6904" y="2445.3186">diff</text><line style="stroke:#181818;stroke-width:6.25;" x1="4340.3442" x2="4471.5942" y1="2648.3185" y2="2648.3185"/><line style="stroke:#181818;stroke-width:6.25;" x1="4471.5942" x2="4471.5942" y1="2648.3185" y2="2688.9435"/><line style="stroke:#181818;stroke-width:6.25;" x1="4343.4692" x2="4471.5942" y1="2688.9435" y2="2688.9435"/><polygon fill="#181818" points="4374.7192,2676.4435,4343.4692,2688.9435,4374.7192,2701.4435,4362.2192,2688.9435" style="stroke:#181818;stroke-width:3.125;"/><text fill="#000000" font-family="Arial" font-size="68.75" font-weight="bold" lengthAdjust="spacing" textLength="99.3652" x="4368.4692" y="2621.2494">cat</text><polygon fill="#0000FF" points="2977.0752,2643.631,2945.8252,2656.131,2977.0752,2668.631,2964.5752,2656.131" style="stroke:#0000FF;stroke-width:3.125;"/><line style="stroke:#0000FF;stroke-width:6.25;" x1="2958.3252" x2="4337.2192" y1="2656.131" y2="2656.131"/><text fill="#000000" font-family="Arial" font-size="68.75" font-weight="bold" lengthAdjust="spacing" textLength="912.9852" x="3002.0752" y="2629.0619">in case of revision option(s)</text><line style="stroke:#181818;stroke-width:6.25;" x1="2811.4502" x2="2939.5752" y1="2648.3185" y2="2648.3185"/><line style="stroke:#181818;stroke-width:6.25;" x1="2811.4502" x2="2811.4502" y1="2648.3185" y2="2688.9435"/><line style="stroke:#181818;stroke-width:6.25;" x1="2811.4502" x2="2936.4502" y1="2688.9435" y2="2688.9435"/><polygon fill="#181818" points="2905.2002,2676.4435,2936.4502,2688.9435,2905.2002,2701.4435,2917.7002,2688.9435" style="stroke:#181818;stroke-width:3.125;"/><text fill="#000000" font-family="Arial" font-size="68.75" font-weight="bold" lengthAdjust="spacing" textLength="99.3652" x="2814.5752" y="2621.2494">cat</text><line style="stroke:#181818;stroke-width:6.25;" x1="4340.3442" x2="4471.5942" y1="2824.2493" y2="2824.2493"/><line style="stroke:#181818;stroke-width:6.25;" x1="4471.5942" x2="4471.5942" y1="2824.2493" y2="2864.8743"/><line style="stroke:#181818;stroke-width:6.25;" x1="4343.4692" x2="4471.5942" y1="2864.8743" y2="2864.8743"/><polygon fill="#181818" points="4374.7192,2852.3743,4343.4692,2864.8743,4374.7192,2877.3743,4362.2192,2864.8743" style="stroke:#181818;stroke-width:3.125;"/><text fill="#000000" font-family="Arial" font-size="68.75" font-weight="bold" lengthAdjust="spacing" textLength="951.2543" x="4368.4692" y="2797.1802">blame (praise, annotate, ann)</text><polygon fill="#0000FF" points="2977.0752,2819.5618,2945.8252,2832.0618,2977.0752,2844.5618,2964.5752,2832.0618" style="stroke:#0000FF;stroke-width:3.125;"/><line style="stroke:#0000FF;stroke-width:6.25;" x1="2958.3252" x2="4337.2192" y1="2832.0618" y2="2832.0618"/><line style="stroke:#181818;stroke-width:6.25;" x1="2811.4502" x2="2939.5752" y1="2824.2493" y2="2824.2493"/><line style="stroke:#181818;stroke-width:6.25;" x1="2811.4502" x2="2811.4502" y1="2824.2493" y2="2864.8743"/><line style="stroke:#181818;stroke-width:6.25;" x1="2811.4502" x2="2936.4502" y1="2864.8743" y2="2864.8743"/><polygon fill="#181818" points="2905.2002,2852.3743,2936.4502,2864.8743,2905.2002,2877.3743,2917.7002,2864.8743" style="stroke:#181818;stroke-width:3.125;"/><text fill="#000000" font-family="Arial" font-size="68.75" font-weight="bold" lengthAdjust="spacing" textLength="951.2543" x="1963.3209" y="2797.1802">blame (praise, annotate, ann)</text><line style="stroke:#181818;stroke-width:6.25;" x1="4340.3442" x2="4471.5942" y1="3000.1801" y2="3000.1801"/><line style="stroke:#181818;stroke-width:6.25;" x1="4471.5942" x2="4471.5942" y1="3000.1801" y2="3040.8051"/><line style="stroke:#181818;stroke-width:6.25;" x1="4343.4692" x2="4471.5942" y1="3040.8051" y2="3040.8051"/><polygon fill="#181818" points="4374.7192,3028.3051,4343.4692,3040.8051,4374.7192,3053.3051,4362.2192,3040.8051" style="stroke:#181818;stroke-width:3.125;"/><text fill="#000000" font-family="Arial" font-size="68.75" font-weight="bold" lengthAdjust="spacing" textLength="221.5576" x="4368.4692" y="2973.111">list (ls)</text><polygon fill="#0000FF" points="2977.0752,2995.4926,2945.8252,3007.9926,2977.0752,3020.4926,2964.5752,3007.9926" style="stroke:#0000FF;stroke-width:3.125;"/><line style="stroke:#0000FF;stroke-width:6.25;" x1="2958.3252" x2="4337.2192" y1="3007.9926" y2="3007.9926"/><line style="stroke:#181818;stroke-width:6.25;" x1="2811.4502" x2="2939.5752" y1="3000.1801" y2="3000.1801"/><line style="stroke:#181818;stroke-width:6.25;" x1="2811.4502" x2="2811.4502" y1="3000.1801" y2="3040.8051"/><line style="stroke:#181818;stroke-width:6.25;" x1="2811.4502" x2="2936.4502" y1="3040.8051" y2="3040.8051"/><polygon fill="#181818" points="2905.2002,3028.3051,2936.4502,3040.8051,2905.2002,3053.3051,2917.7002,3040.8051" style="stroke:#181818;stroke-width:3.125;"/><text fill="#000000" font-family="Arial" font-size="68.75" font-weight="bold" lengthAdjust="spacing" textLength="221.5576" x="2693.0176" y="2973.111">list (ls)</text><rect fill="#EEEEEE" filter="url(#f16911ztzixsge)" height="9.375" style="stroke:#EEEEEE;stroke-width:3.125;" width="7144.9432" x="15.625" y="3155.8014"/><line style="stroke:#000000;stroke-width:3.125;" x1="15.625" x2="7160.5682" y1="3155.8014" y2="3155.8014"/><line style="stroke:#000000;stroke-width:3.125;" x1="15.625" x2="7160.5682" y1="3165.1764" y2="3165.1764"/><rect fill="#EEEEEE" filter="url(#f16911ztzixsge)" height="123.7427" style="stroke:#000000;stroke-width:6.25;" width="2631.7017" x="2272.2458" y="3097.0551"/><text fill="#000000" font-family="Arial" font-size="75" font-weight="bold" lengthAdjust="spacing" textLength="2554.6143" x="2297.2458" y="3186.1542">Path/Change Tracking operations (Add/Move/Delete/Copy/Mkdir/Revert)</text><polygon fill="#181818" points="2905.2002,3349.8535,2936.4502,3362.3535,2905.2002,3374.8535,2917.7002,3362.3535" style="stroke:#181818;stroke-width:3.125;"/><line style="stroke:#181818;stroke-width:6.25;" x1="1935.1959" x2="2923.9502" y1="3362.3535" y2="3362.3535"/><text fill="#000000" font-family="Arial" font-size="68.75" font-weight="bold" lengthAdjust="spacing" textLength="122.226" x="1963.3209" y="3335.2844">add</text><path d="M46.759,3267.6727 L46.759,3389.5477 L1909.259,3389.5477 L1909.259,3298.9227 L1878.009,3267.6727 L46.759,3267.6727 " fill="#FEFFDD" filter="url(#f16911ztzixsge)" style="stroke:#181818;stroke-width:1.5625;"/><path d="M1878.009,3267.6727 L1878.009,3298.9227 L1909.259,3298.9227 L1878.009,3267.6727 " fill="#FEFFDD" style="stroke:#181818;stroke-width:1.5625;"/><text fill="#000000" font-family="Arial" font-size="68.75" font-weight="bold" lengthAdjust="spacing" textLength="1757.1869" x="99.884" y="3354.0344">add local not version controlled file to version control</text><polygon fill="#181818" points="1969.5709,3513.2843,1938.3209,3525.7843,1969.5709,3538.2843,1957.0709,3525.7843" style="stroke:#181818;stroke-width:3.125;"/><line style="stroke:#181818;stroke-width:6.25;" x1="1950.8209" x2="2939.5752" y1="3525.7843" y2="3525.7843"/><text fill="#000000" font-family="Arial" font-size="68.75" font-weight="bold" lengthAdjust="spacing" textLength="191.1102" x="1994.5709" y="3498.7152">revert</text><polygon fill="#181818" points="1969.5709,3656.4026,1938.3209,3668.9026,1969.5709,3681.4026,1957.0709,3668.9026" style="stroke:#181818;stroke-width:3.125;"/><polygon fill="#181818" points="2905.2002,3656.4026,2936.4502,3668.9026,2905.2002,3681.4026,2917.7002,3668.9026" style="stroke:#181818;stroke-width:3.125;"/><line style="stroke:#181818;stroke-width:6.25;" x1="1950.8209" x2="2923.9502" y1="3668.9026" y2="3668.9026"/><text fill="#000000" font-family="Arial" font-size="68.75" font-weight="bold" lengthAdjust="spacing" textLength="771.8262" x="1994.5709" y="3641.8335">move (mv, rename, ren)</text><path d="M31.25,3574.2218 L31.25,3696.0968 L1909.375,3696.0968 L1909.375,3605.4718 L1878.125,3574.2218 L31.25,3574.2218 " fill="#FEFFDD" filter="url(#f16911ztzixsge)" style="stroke:#181818;stroke-width:1.5625;"/><path d="M1878.125,3574.2218 L1878.125,3605.4718 L1909.375,3605.4718 L1878.125,3574.2218 " fill="#FEFFDD" style="stroke:#181818;stroke-width:1.5625;"/><text fill="#000000" font-family="Arial" font-size="68.75" font-weight="bold" lengthAdjust="spacing" textLength="1772.6959" x="84.375" y="3660.5835">move or rename local version controlled file OR folder</text><line style="stroke:#181818;stroke-width:6.25;" x1="4340.3442" x2="4471.5942" y1="3661.0901" y2="3661.0901"/><line style="stroke:#181818;stroke-width:6.25;" x1="4471.5942" x2="4471.5942" y1="3661.0901" y2="3701.7151"/><line style="stroke:#181818;stroke-width:6.25;" x1="4343.4692" x2="4471.5942" y1="3701.7151" y2="3701.7151"/><polygon fill="#181818" points="4374.7192,3689.2151,4343.4692,3701.7151,4374.7192,3714.2151,4362.2192,3701.7151" style="stroke:#181818;stroke-width:3.125;"/><text fill="#000000" font-family="Arial" font-size="68.75" font-weight="bold" lengthAdjust="spacing" textLength="771.8262" x="4368.4692" y="3634.021">move (mv, rename, ren)</text><path d="M5184.0454,3566.4093 L5184.0454,3688.2843 L7134.0454,3688.2843 L7134.0454,3597.6593 L7102.7954,3566.4093 L5184.0454,3566.4093 " fill="#FEFFDD" filter="url(#f16911ztzixsge)" style="stroke:#181818;stroke-width:1.5625;"/><path d="M7102.7954,3566.4093 L7102.7954,3597.6593 L7134.0454,3597.6593 L7102.7954,3566.4093 " fill="#FEFFDD" style="stroke:#181818;stroke-width:1.5625;"/><text fill="#000000" font-family="Arial" font-size="68.75" font-weight="bold" lengthAdjust="spacing" textLength="1845.2728" x="5237.1704" y="3652.771">move or rename remote version controlled file OR folder</text><polygon fill="#181818" points="1969.5709,3832.3334,1938.3209,3844.8334,1969.5709,3857.3334,1957.0709,3844.8334" style="stroke:#181818;stroke-width:3.125;"/><polygon fill="#181818" points="2905.2002,3832.3334,2936.4502,3844.8334,2905.2002,3857.3334,2917.7002,3844.8334" style="stroke:#181818;stroke-width:3.125;"/><line style="stroke:#181818;stroke-width:6.25;" x1="1950.8209" x2="2923.9502" y1="3844.8334" y2="3844.8334"/><text fill="#000000" font-family="Arial" font-size="68.75" font-weight="bold" lengthAdjust="spacing" textLength="187.2162" x="1994.5709" y="3817.7643">mkdir</text><line style="stroke:#181818;stroke-width:6.25;" x1="4340.3442" x2="4471.5942" y1="3837.0209" y2="3837.0209"/><line style="stroke:#181818;stroke-width:6.25;" x1="4471.5942" x2="4471.5942" y1="3837.0209" y2="3877.6459"/><line style="stroke:#181818;stroke-width:6.25;" x1="4343.4692" x2="4471.5942" y1="3877.6459" y2="3877.6459"/><polygon fill="#181818" points="4374.7192,3865.1459,4343.4692,3877.6459,4374.7192,3890.1459,4362.2192,3877.6459" style="stroke:#181818;stroke-width:3.125;"/><text fill="#000000" font-family="Arial" font-size="68.75" font-weight="bold" lengthAdjust="spacing" textLength="187.2162" x="4368.4692" y="3809.9518">mkdir</text><polygon fill="#181818" points="1969.5709,4008.2642,1938.3209,4020.7642,1969.5709,4033.2642,1957.0709,4020.7642" style="stroke:#181818;stroke-width:3.125;"/><polygon fill="#181818" points="2905.2002,4008.2642,2936.4502,4020.7642,2905.2002,4033.2642,2917.7002,4020.7642" style="stroke:#181818;stroke-width:3.125;"/><line style="stroke:#181818;stroke-width:6.25;" x1="1950.8209" x2="2923.9502" y1="4020.7642" y2="4020.7642"/><text fill="#000000" font-family="Arial" font-size="68.75" font-weight="bold" lengthAdjust="spacing" textLength="771.7926" x="1994.5709" y="3993.6951">delete (del, remove, rm)</text><path d="M134.4421,3926.0834 L134.4421,4047.9584 L1909.4421,4047.9584 L1909.4421,3957.3334 L1878.1921,3926.0834 L134.4421,3926.0834 " fill="#FEFFDD" filter="url(#f16911ztzixsge)" style="stroke:#181818;stroke-width:1.5625;"/><path d="M1878.1921,3926.0834 L1878.1921,3957.3334 L1909.4421,3957.3334 L1878.1921,3926.0834 " fill="#FEFFDD" style="stroke:#181818;stroke-width:1.5625;"/><text fill="#000000" font-family="Arial" font-size="68.75" font-weight="bold" lengthAdjust="spacing" textLength="1669.5038" x="187.5671" y="4012.4451">remove local file from version control and sandbox</text><line style="stroke:#181818;stroke-width:6.25;" x1="4340.3442" x2="4471.5942" y1="4012.9517" y2="4012.9517"/><line style="stroke:#181818;stroke-width:6.25;" x1="4471.5942" x2="4471.5942" y1="4012.9517" y2="4053.5767"/><line style="stroke:#181818;stroke-width:6.25;" x1="4343.4692" x2="4471.5942" y1="4053.5767" y2="4053.5767"/><polygon fill="#181818" points="4374.7192,4041.0767,4343.4692,4053.5767,4374.7192,4066.0767,4362.2192,4053.5767" style="stroke:#181818;stroke-width:3.125;"/><text fill="#000000" font-family="Arial" font-size="68.75" font-weight="bold" lengthAdjust="spacing" textLength="771.7926" x="4368.4692" y="3985.8826">delete (del, remove, rm)</text><path d="M5184.0118,3918.2709 L5184.0118,4040.1459 L6830.8868,4040.1459 L6830.8868,3949.5209 L6799.6368,3918.2709 L5184.0118,3918.2709 " fill="#FEFFDD" filter="url(#f16911ztzixsge)" style="stroke:#181818;stroke-width:1.5625;"/><path d="M6799.6368,3918.2709 L6799.6368,3949.5209 L6830.8868,3949.5209 L6799.6368,3918.2709 " fill="#FEFFDD" style="stroke:#181818;stroke-width:1.5625;"/><text fill="#000000" font-family="Arial" font-size="68.75" font-weight="bold" lengthAdjust="spacing" textLength="1543.5181" x="5237.1368" y="4004.6326">remove file OR folder (e.g. branch, tag, release)</text><polygon fill="#181818" points="1969.5709,4184.1949,1938.3209,4196.6949,1969.5709,4209.1949,1957.0709,4196.6949" style="stroke:#181818;stroke-width:3.125;"/><polygon fill="#181818" points="2905.2002,4184.1949,2936.4502,4196.6949,2905.2002,4209.1949,2917.7002,4196.6949" style="stroke:#181818;stroke-width:3.125;"/><line style="stroke:#181818;stroke-width:6.25;" x1="1950.8209" x2="2923.9502" y1="4196.6949" y2="4196.6949"/><text fill="#000000" font-family="Arial" font-size="68.75" font-weight="bold" lengthAdjust="spacing" textLength="305.5817" x="1994.5709" y="4169.6259">copy (cp)</text><path d="M592.8986,4102.0142 L592.8986,4223.8892 L1908.5236,4223.8892 L1908.5236,4133.2642 L1877.2736,4102.0142 L592.8986,4102.0142 " fill="#FEFFDD" filter="url(#f16911ztzixsge)" style="stroke:#181818;stroke-width:1.5625;"/><path d="M1877.2736,4102.0142 L1877.2736,4133.2642 L1908.5236,4133.2642 L1877.2736,4102.0142 " fill="#FEFFDD" style="stroke:#181818;stroke-width:1.5625;"/><text fill="#000000" font-family="Arial" font-size="68.75" font-weight="bold" lengthAdjust="spacing" textLength="1211.0474" x="646.0236" y="4188.3759">duplicate local version controlled file</text><line style="stroke:#181818;stroke-width:6.25;" x1="4340.3442" x2="4471.5942" y1="4188.8824" y2="4188.8824"/><line style="stroke:#181818;stroke-width:6.25;" x1="4471.5942" x2="4471.5942" y1="4188.8824" y2="4229.5074"/><line style="stroke:#181818;stroke-width:6.25;" x1="4343.4692" x2="4471.5942" y1="4229.5074" y2="4229.5074"/><polygon fill="#181818" points="4374.7192,4217.0074,4343.4692,4229.5074,4374.7192,4242.0074,4362.2192,4229.5074" style="stroke:#181818;stroke-width:3.125;"/><text fill="#000000" font-family="Arial" font-size="68.75" font-weight="bold" lengthAdjust="spacing" textLength="305.5817" x="4368.4692" y="4161.8134">copy (cp)</text><path d="M4717.8009,4094.2017 L4717.8009,4216.0767 L5924.0509,4216.0767 L5924.0509,4125.4517 L5892.8009,4094.2017 L4717.8009,4094.2017 " fill="#FEFFDD" filter="url(#f16911ztzixsge)" style="stroke:#181818;stroke-width:1.5625;"/><path d="M5892.8009,4094.2017 L5892.8009,4125.4517 L5924.0509,4125.4517 L5892.8009,4094.2017 " fill="#FEFFDD" style="stroke:#181818;stroke-width:1.5625;"/><text fill="#000000" font-family="Arial" font-size="68.75" font-weight="bold" lengthAdjust="spacing" textLength="1100.0671" x="4770.9259" y="4180.5634">duplicate file OR folder (e.g. path)</text><rect fill="#EEEEEE" filter="url(#f16911ztzixsge)" height="9.375" style="stroke:#EEEEEE;stroke-width:3.125;" width="7144.9432" x="15.625" y="4344.5038"/><line style="stroke:#000000;stroke-width:3.125;" x1="15.625" x2="7160.5682" y1="4344.5038" y2="4344.5038"/><line style="stroke:#000000;stroke-width:3.125;" x1="15.625" x2="7160.5682" y1="4353.8788" y2="4353.8788"/><rect fill="#EEEEEE" filter="url(#f16911ztzixsge)" height="123.7427" style="stroke:#000000;stroke-width:6.25;" width="802.1118" x="3187.0407" y="4285.7574"/><text fill="#000000" font-family="Arial" font-size="75" font-weight="bold" lengthAdjust="spacing" textLength="725.0244" x="3212.0407" y="4374.8566">Merging / Branching</text><polygon fill="#181818" points="2977.0752,4538.5559,2945.8252,4551.0559,2977.0752,4563.5559,2964.5752,4551.0559" style="stroke:#181818;stroke-width:3.125;"/><line style="stroke:#181818;stroke-width:6.25;" x1="2958.3252" x2="4337.2192" y1="4551.0559" y2="4551.0559"/><text fill="#000000" font-family="Arial" font-size="68.75" font-weight="bold" lengthAdjust="spacing" textLength="206.3507" x="3002.0752" y="4523.9868">merge</text><polygon fill="#181818" points="1969.5709,4538.5559,1938.3209,4551.0559,1969.5709,4563.5559,1957.0709,4551.0559" style="stroke:#181818;stroke-width:3.125;"/><line style="stroke:#181818;stroke-width:6.25;" x1="1950.8209" x2="2939.5752" y1="4551.0559" y2="4551.0559"/><polygon fill="#181818" points="2977.0752,4673.8617,2945.8252,4686.3617,2977.0752,4698.8617,2964.5752,4686.3617" style="stroke:#181818;stroke-width:3.125;"/><line style="stroke:#181818;stroke-width:6.25;" x1="2958.3252" x2="5344.7235" y1="4686.3617" y2="4686.3617"/><text fill="#000000" font-family="Arial" font-size="68.75" font-weight="bold" lengthAdjust="spacing" textLength="206.3507" x="3002.0752" y="4659.2926">merge</text><polygon fill="#181818" points="1969.5709,4673.8617,1938.3209,4686.3617,1969.5709,4698.8617,1957.0709,4686.3617" style="stroke:#181818;stroke-width:3.125;"/><line style="stroke:#181818;stroke-width:6.25;" x1="1950.8209" x2="2939.5752" y1="4686.3617" y2="4686.3617"/><line style="stroke:#181818;stroke-width:6.25;" x1="4340.3442" x2="4471.5942" y1="4821.6675" y2="4821.6675"/><line style="stroke:#181818;stroke-width:6.25;" x1="4471.5942" x2="4471.5942" y1="4821.6675" y2="4862.2925"/><line style="stroke:#181818;stroke-width:6.25;" x1="4343.4692" x2="4471.5942" y1="4862.2925" y2="4862.2925"/><polygon fill="#181818" points="4374.7192,4849.7925,4343.4692,4862.2925,4374.7192,4874.7925,4362.2192,4862.2925" style="stroke:#181818;stroke-width:3.125;"/><text fill="#000000" font-family="Arial" font-size="68.75" font-weight="bold" lengthAdjust="spacing" textLength="305.5817" x="4368.4692" y="4794.5984">copy (cp)</text><path d="M4717.8009,4726.9867 L4717.8009,4848.8617 L6424.0509,4848.8617 L6424.0509,4758.2367 L6392.8009,4726.9867 L4717.8009,4726.9867 " fill="#FEFFDD" filter="url(#f16911ztzixsge)" style="stroke:#181818;stroke-width:1.5625;"/><path d="M6392.8009,4726.9867 L6392.8009,4758.2367 L6424.0509,4758.2367 L6392.8009,4726.9867 " fill="#FEFFDD" style="stroke:#181818;stroke-width:1.5625;"/><text fill="#000000" font-family="Arial" font-size="68.75" font-weight="bold" lengthAdjust="spacing" textLength="1600.7202" x="4770.9259" y="4813.3484">duplicate file OR folder (e.g. branch, tag, release)</text><polygon fill="#0000FF" points="2977.0752,4985.0983,2945.8252,4997.5983,2977.0752,5010.0983,2964.5752,4997.5983" style="stroke:#0000FF;stroke-width:3.125;"/><line style="stroke:#0000FF;stroke-width:6.25;" x1="2958.3252" x2="4337.2192" y1="4997.5983" y2="4997.5983"/><polygon fill="#181818" points="1969.5709,4985.0983,1938.3209,4997.5983,1969.5709,5010.0983,1957.0709,4997.5983" style="stroke:#181818;stroke-width:3.125;"/><line style="stroke:#181818;stroke-width:6.25;" x1="1950.8209" x2="2939.5752" y1="4997.5983" y2="4997.5983"/><text fill="#000000" font-family="Arial" font-size="68.75" font-weight="bold" lengthAdjust="spacing" textLength="240.7928" x="1994.5709" y="4970.5292">resolve</text><path d="M1035.9131,4902.9175 L1035.9131,5024.7925 L1907.7881,5024.7925 L1907.7881,4934.1675 L1876.5381,4902.9175 L1035.9131,4902.9175 " fill="#FEFFDD" filter="url(#f16911ztzixsge)" style="stroke:#181818;stroke-width:1.5625;"/><path d="M1876.5381,4902.9175 L1876.5381,4934.1675 L1907.7881,4934.1675 L1876.5381,4902.9175 " fill="#FEFFDD" style="stroke:#181818;stroke-width:1.5625;"/><text fill="#000000" font-family="Arial" font-size="68.75" font-weight="bold" lengthAdjust="spacing" textLength="768.0328" x="1089.0381" y="4989.2792">resolve merge conflicts</text><polygon fill="#181818" points="2977.0752,5148.5291,2945.8252,5161.0291,2977.0752,5173.5291,2964.5752,5161.0291" style="stroke:#181818;stroke-width:3.125;"/><line style="stroke:#181818;stroke-width:6.25;" x1="2958.3252" x2="4337.2192" y1="5161.0291" y2="5161.0291"/><polygon fill="#181818" points="1969.5709,5148.5291,1938.3209,5161.0291,1969.5709,5173.5291,1957.0709,5161.0291" style="stroke:#181818;stroke-width:3.125;"/><line style="stroke:#181818;stroke-width:6.25;" x1="1950.8209" x2="2939.5752" y1="5161.0291" y2="5161.0291"/><text fill="#000000" font-family="Arial" font-size="68.75" font-weight="bold" lengthAdjust="spacing" textLength="370.5383" x="1994.5709" y="5133.96">switch (sw)</text><path d="M825.9705,5066.3483 L825.9705,5188.2233 L1907.2205,5188.2233 L1907.2205,5097.5983 L1875.9705,5066.3483 L825.9705,5066.3483 " fill="#FEFFDD" filter="url(#f16911ztzixsge)" style="stroke:#181818;stroke-width:1.5625;"/><path d="M1875.9705,5066.3483 L1875.9705,5097.5983 L1907.2205,5097.5983 L1875.9705,5066.3483 " fill="#FEFFDD" style="stroke:#181818;stroke-width:1.5625;"/><text fill="#000000" font-family="Arial" font-size="68.75" font-weight="bold" lengthAdjust="spacing" textLength="977.9755" x="879.0955" y="5152.71">change to branch/tag/revision</text><rect fill="#EEEEEE" filter="url(#f16911ztzixsge)" height="9.375" style="stroke:#EEEEEE;stroke-width:3.125;" width="7144.9432" x="15.625" y="5304.1504"/><line style="stroke:#000000;stroke-width:3.125;" x1="15.625" x2="7160.5682" y1="5304.1504" y2="5304.1504"/><line style="stroke:#000000;stroke-width:3.125;" x1="15.625" x2="7160.5682" y1="5313.5254" y2="5313.5254"/><rect fill="#EEEEEE" filter="url(#f16911ztzixsge)" height="123.7427" style="stroke:#000000;stroke-width:6.25;" width="589.7827" x="3293.2053" y="5245.4041"/><text fill="#000000" font-family="Arial" font-size="75" font-weight="bold" lengthAdjust="spacing" textLength="512.6953" x="3318.2053" y="5334.5032">Miscellaneous</text><polygon fill="#181818" points="2977.0752,5498.2025,2945.8252,5510.7025,2977.0752,5523.2025,2964.5752,5510.7025" style="stroke:#181818;stroke-width:3.125;"/><line style="stroke:#181818;stroke-width:6.25;" x1="2958.3252" x2="5344.7235" y1="5510.7025" y2="5510.7025"/><text fill="#000000" font-family="Arial" font-size="68.75" font-weight="bold" lengthAdjust="spacing" textLength="263.6871" x="3002.0752" y="5483.6334">relocate</text><polygon fill="#181818" points="1969.5709,5498.2025,1938.3209,5510.7025,1969.5709,5523.2025,1957.0709,5510.7025" style="stroke:#181818;stroke-width:3.125;"/><line style="stroke:#181818;stroke-width:6.25;" x1="1950.8209" x2="2939.5752" y1="5510.7025" y2="5510.7025"/><polygon fill="#181818" points="2905.2002,5633.5083,2936.4502,5646.0083,2905.2002,5658.5083,2917.7002,5646.0083" style="stroke:#181818;stroke-width:3.125;"/><line style="stroke:#181818;stroke-width:6.25;" x1="1935.1959" x2="2923.9502" y1="5646.0083" y2="5646.0083"/><text fill="#000000" font-family="Arial" font-size="68.75" font-weight="bold" lengthAdjust="spacing" textLength="137.5671" x="1963.3209" y="5618.9392">lock</text><polygon fill="#181818" points="4302.8442,5633.5083,4334.0942,5646.0083,4302.8442,5658.5083,4315.3442,5646.0083" style="stroke:#181818;stroke-width:3.125;"/><line style="stroke:#181818;stroke-width:6.25;" x1="2942.7002" x2="4321.5942" y1="5646.0083" y2="5646.0083"/><polygon fill="#181818" points="2905.2002,5768.8141,2936.4502,5781.3141,2905.2002,5793.8141,2917.7002,5781.3141" style="stroke:#181818;stroke-width:3.125;"/><line style="stroke:#181818;stroke-width:6.25;" x1="1935.1959" x2="2923.9502" y1="5781.3141" y2="5781.3141"/><text fill="#000000" font-family="Arial" font-size="68.75" font-weight="bold" lengthAdjust="spacing" textLength="221.5576" x="1963.3209" y="5754.245">unlock</text><polygon fill="#181818" points="4302.8442,5768.8141,4334.0942,5781.3141,4302.8442,5793.8141,4315.3442,5781.3141" style="stroke:#181818;stroke-width:3.125;"/><line style="stroke:#181818;stroke-width:6.25;" x1="2942.7002" x2="4321.5942" y1="5781.3141" y2="5781.3141"/><!--SRC=[jLXjR-Cs3FxkNy6cm183IJqSi05tM5Sq2GOCkEw6TYyVrg5GRCKM8bk6BAUt-_MZ93krazYM3pb_g5sP3_cGeaWwLxaaSKf0KV45b2ofvrsnBEHbH64hP4hKJPdoA_leUOefJc7oL6xsL1PCP31x-kit7nOWSYg9qYkISaeKZI0KQKgo20JAxXbzdNZUHdo62HSXuHEuNg_Mw_Mz1s1Mdr0K7_JwkzLozJsk0qH4aGqfqEJVGkvO5iDAvFyzPnC0Ka1X8IX9qOnzChhMDMnsK-mplqjd_LJhCyHUear3uRGXNZ5ypffSsangc7LKqbGeUkpfzUg7vO_lrqTSLZHJad1ufBaec1BIUcalj13QzoyItvyuVBrStY_VlpjI-KabL3vdfvedMg7GRrywr1xycCBj1IxlzXP-pPXYXBClDajmSGfYvrMHWvyMX_331mWJ6kv4gRpltbPHeiKsc4A6uGLEj-e3h4L6GMGX1IMWeAhCwqs1QN19F_xCCS8K0emdvZd6kT-JqehFojpt6dIhvHhpobG275SA1TN9wdEzRN3nSojqUEgOWbd8_AOA53fMSP68Q3MujrinXoT5L5dCyLYaEP5q3XyPkcEZjfJYjH6hfcSDxWprLCuroSBYd-iDB-c_RuuUHQUXWulOJOMn1w7UGh6jDqGpqANEbBR2E0IBqkysLyaOsJd-vvyrtWu-mYAstQBIKHGbtJDJSqMk-SsA7bf6lnEJaAXlIKIhT-AnuIJ5SuBzY1MOEoJ3qu8xOfxyOORT3FeLEt7ZEf5dlF1T8jMJcWSr5wn7lnEL1Ak4P365FoG9JMSwT6FCpFie2Xwm1mThB5YA1hfh1G-xYCdWaMAnKVv92MjN5195pTA5_zgtklpMrGhB3eP5S8vzVykugS97hy3hgvFIK3aHQH59qGkOfVivIcUugURUAgj6GiZgVKMpY-AdHnnnU4JboQwU942VPSdYvDIqxVqEjlizrjlaGC-8zMgApER33EzpGswldKXRqRFBLTGCpQqKwSa-wfck7dW6gVNRhM9N6Mv71cRq9hw1ZIHPcCn1aNXkPyk2-ls-XfZXs03R7JSgSyv2NUDxisBOeoFjbGjlwizwaUCflUYnVw0orYSzmDQg0wIVyKtNoA2J117QlJFdpslXJYV38VItY5Z7lhkKtwuAKmY-f-s4DqlMEPq9MsIa2hrFmmtnxkuEvGQiHLvhIkqmQ7ITxqID_dRUK86pOvZW0FBQIlVGTWGimpQG0SOng1ltHHEH5I7bd6HKu1o4QzwP_6cVJznDeJU-AvtCJFcBJegF8jnfdUSR4pxkUcVSyx0o6mG6K_qjfJkTynNX1uW1bJZAkruBZUWTKBhCOFp6SxD9OSUGaFi3tC12x9SO0eJlR0TFQuPVOEunQ7orkBbZoTM5PKmGkZfIFmZdQOImKPRevrn8DIOL4ifpcDtD8V4T4ImTQqD_uepEdCFeEWgaJ-zeIo8UdzYsdduDo3KQ9dHcpXfjvkpiE032UI5CHbMHN8eSKnhhY4diFF9T43JIfyxS44FzOKHCDG3_edpiPCFcZhaXXZlOA8oDmjWe1ctKxSGfLceJMOnjn5-1YSPXz6VDo8mv-Kt12VGs1xXRigrm9Bt6JrfZGB4a4NLDQ6yQUFy3]--></g></svg>